<svg xmlns="http://www.w3.org/2000/svg" style="margin:auto;background:rgba(0, 0, 0, 0);display:block;" width="998" height="250" preserveAspectRatio="xMidYMid">
<style type="text/css">
  text {
    text-anchor: middle; font-size: 48px; opacity: 0;
  }
</style>
<g style="transform-origin:499px 125px;transform:scale(1)">
<style type="text/css">

  @keyframes ld-explode {
    0% { transform: scale(0) }
    100% { transform: scale(1) }
  }

  .ld-explode {
    animation: ld-explode 1s ease-out infinite;
    transform-origin: 0px 0px;
  }

  @keyframes ld-pop {
    0% { transform: scale(0) }
    50% { transform: scale(1) }
    100% { transform: scale(0) }
  }

  .ld-pop {
    transform: scale(0);
    transform-origin: 40px 0px;
    animation: ld-pop 1s ease-out infinite;
  }

</style>
<defs>
<filter id="blur1">
  <feGaussianBlur stdDeviation="2"></feGaussianBlur>
</filter>
<filter id="firework">
  <feGaussianBlur stdDeviation="2" result="blur"></feGaussianBlur>
  <feMerge>
    <feMergeNode in="blur"></feMergeNode>
    <feMergeNode in="SourceGraphic"></feMergeNode>
  </feMerge>
</filter>
</defs>
<g transform="translate(499,125)">
  <g filter="url(#firework)">
  <g transform="translate(96.16602042698973,-37.70415218096251) scale(0.6834884139305596)"><g class="ld-explode" style="animation-delay:0s"><g style="transform:rotate(0deg);transform-origin:0px 0px">
  <path class="ld-pop" d="M30 0l7 0" stroke-width="3" stroke-linecap="round" stroke="#c44129" style="animation-delay:0s"></path>
</g><g style="transform:rotate(22.5deg);transform-origin:0px 0px">
  <path class="ld-pop" d="M30 0l3 0" stroke-width="3" stroke-linecap="round" stroke="#c44129" style="animation-delay:0s"></path>
</g><g style="transform:rotate(45deg);transform-origin:0px 0px">
  <path class="ld-pop" d="M30 0l7 0" stroke-width="3" stroke-linecap="round" stroke="#c44129" style="animation-delay:0s"></path>
</g><g style="transform:rotate(67.5deg);transform-origin:0px 0px">
  <path class="ld-pop" d="M30 0l3 0" stroke-width="3" stroke-linecap="round" stroke="#c44129" style="animation-delay:0s"></path>
</g><g style="transform:rotate(90deg);transform-origin:0px 0px">
  <path class="ld-pop" d="M30 0l7 0" stroke-width="3" stroke-linecap="round" stroke="#c44129" style="animation-delay:0s"></path>
</g><g style="transform:rotate(112.5deg);transform-origin:0px 0px">
  <path class="ld-pop" d="M30 0l3 0" stroke-width="3" stroke-linecap="round" stroke="#c44129" style="animation-delay:0s"></path>
</g><g style="transform:rotate(135deg);transform-origin:0px 0px">
  <path class="ld-pop" d="M30 0l7 0" stroke-width="3" stroke-linecap="round" stroke="#c44129" style="animation-delay:0s"></path>
</g><g style="transform:rotate(157.5deg);transform-origin:0px 0px">
  <path class="ld-pop" d="M30 0l3 0" stroke-width="3" stroke-linecap="round" stroke="#c44129" style="animation-delay:0s"></path>
</g><g style="transform:rotate(180deg);transform-origin:0px 0px">
  <path class="ld-pop" d="M30 0l7 0" stroke-width="3" stroke-linecap="round" stroke="#c44129" style="animation-delay:0s"></path>
</g><g style="transform:rotate(202.5deg);transform-origin:0px 0px">
  <path class="ld-pop" d="M30 0l3 0" stroke-width="3" stroke-linecap="round" stroke="#c44129" style="animation-delay:0s"></path>
</g><g style="transform:rotate(225deg);transform-origin:0px 0px">
  <path class="ld-pop" d="M30 0l7 0" stroke-width="3" stroke-linecap="round" stroke="#c44129" style="animation-delay:0s"></path>
</g><g style="transform:rotate(247.5deg);transform-origin:0px 0px">
  <path class="ld-pop" d="M30 0l3 0" stroke-width="3" stroke-linecap="round" stroke="#c44129" style="animation-delay:0s"></path>
</g><g style="transform:rotate(270deg);transform-origin:0px 0px">
  <path class="ld-pop" d="M30 0l7 0" stroke-width="3" stroke-linecap="round" stroke="#c44129" style="animation-delay:0s"></path>
</g><g style="transform:rotate(292.5deg);transform-origin:0px 0px">
  <path class="ld-pop" d="M30 0l3 0" stroke-width="3" stroke-linecap="round" stroke="#c44129" style="animation-delay:0s"></path>
</g><g style="transform:rotate(315deg);transform-origin:0px 0px">
  <path class="ld-pop" d="M30 0l7 0" stroke-width="3" stroke-linecap="round" stroke="#c44129" style="animation-delay:0s"></path>
</g><g style="transform:rotate(337.5deg);transform-origin:0px 0px">
  <path class="ld-pop" d="M30 0l3 0" stroke-width="3" stroke-linecap="round" stroke="#c44129" style="animation-delay:0s"></path>
</g></g></g><g transform="translate(213.60446102354723,-7.776063639217786) scale(0.7546051216963718)"><g class="ld-explode" style="animation-delay:-0.1s"><g style="transform:rotate(0deg);transform-origin:0px 0px">
  <path class="ld-pop" d="M30 0l7 0" stroke-width="3" stroke-linecap="round" stroke="#ec9332" style="animation-delay:-0.1s"></path>
</g><g style="transform:rotate(22.5deg);transform-origin:0px 0px">
  <path class="ld-pop" d="M30 0l3 0" stroke-width="3" stroke-linecap="round" stroke="#ec9332" style="animation-delay:-0.1s"></path>
</g><g style="transform:rotate(45deg);transform-origin:0px 0px">
  <path class="ld-pop" d="M30 0l7 0" stroke-width="3" stroke-linecap="round" stroke="#ec9332" style="animation-delay:-0.1s"></path>
</g><g style="transform:rotate(67.5deg);transform-origin:0px 0px">
  <path class="ld-pop" d="M30 0l3 0" stroke-width="3" stroke-linecap="round" stroke="#ec9332" style="animation-delay:-0.1s"></path>
</g><g style="transform:rotate(90deg);transform-origin:0px 0px">
  <path class="ld-pop" d="M30 0l7 0" stroke-width="3" stroke-linecap="round" stroke="#ec9332" style="animation-delay:-0.1s"></path>
</g><g style="transform:rotate(112.5deg);transform-origin:0px 0px">
  <path class="ld-pop" d="M30 0l3 0" stroke-width="3" stroke-linecap="round" stroke="#ec9332" style="animation-delay:-0.1s"></path>
</g><g style="transform:rotate(135deg);transform-origin:0px 0px">
  <path class="ld-pop" d="M30 0l7 0" stroke-width="3" stroke-linecap="round" stroke="#ec9332" style="animation-delay:-0.1s"></path>
</g><g style="transform:rotate(157.5deg);transform-origin:0px 0px">
  <path class="ld-pop" d="M30 0l3 0" stroke-width="3" stroke-linecap="round" stroke="#ec9332" style="animation-delay:-0.1s"></path>
</g><g style="transform:rotate(180deg);transform-origin:0px 0px">
  <path class="ld-pop" d="M30 0l7 0" stroke-width="3" stroke-linecap="round" stroke="#ec9332" style="animation-delay:-0.1s"></path>
</g><g style="transform:rotate(202.5deg);transform-origin:0px 0px">
  <path class="ld-pop" d="M30 0l3 0" stroke-width="3" stroke-linecap="round" stroke="#ec9332" style="animation-delay:-0.1s"></path>
</g><g style="transform:rotate(225deg);transform-origin:0px 0px">
  <path class="ld-pop" d="M30 0l7 0" stroke-width="3" stroke-linecap="round" stroke="#ec9332" style="animation-delay:-0.1s"></path>
</g><g style="transform:rotate(247.5deg);transform-origin:0px 0px">
  <path class="ld-pop" d="M30 0l3 0" stroke-width="3" stroke-linecap="round" stroke="#ec9332" style="animation-delay:-0.1s"></path>
</g><g style="transform:rotate(270deg);transform-origin:0px 0px">
  <path class="ld-pop" d="M30 0l7 0" stroke-width="3" stroke-linecap="round" stroke="#ec9332" style="animation-delay:-0.1s"></path>
</g><g style="transform:rotate(292.5deg);transform-origin:0px 0px">
  <path class="ld-pop" d="M30 0l3 0" stroke-width="3" stroke-linecap="round" stroke="#ec9332" style="animation-delay:-0.1s"></path>
</g><g style="transform:rotate(315deg);transform-origin:0px 0px">
  <path class="ld-pop" d="M30 0l7 0" stroke-width="3" stroke-linecap="round" stroke="#ec9332" style="animation-delay:-0.1s"></path>
</g><g style="transform:rotate(337.5deg);transform-origin:0px 0px">
  <path class="ld-pop" d="M30 0l3 0" stroke-width="3" stroke-linecap="round" stroke="#ec9332" style="animation-delay:-0.1s"></path>
</g></g></g><g transform="translate(-23.91076846473194,17.19950201849514) scale(0.8533549540183739)"><g class="ld-explode" style="animation-delay:-0.2s"><g style="transform:rotate(0deg);transform-origin:0px 0px">
  <path class="ld-pop" d="M30 0l7 0" stroke-width="3" stroke-linecap="round" stroke="#3e8410" style="animation-delay:-0.2s"></path>
</g><g style="transform:rotate(22.5deg);transform-origin:0px 0px">
  <path class="ld-pop" d="M30 0l3 0" stroke-width="3" stroke-linecap="round" stroke="#3e8410" style="animation-delay:-0.2s"></path>
</g><g style="transform:rotate(45deg);transform-origin:0px 0px">
  <path class="ld-pop" d="M30 0l7 0" stroke-width="3" stroke-linecap="round" stroke="#3e8410" style="animation-delay:-0.2s"></path>
</g><g style="transform:rotate(67.5deg);transform-origin:0px 0px">
  <path class="ld-pop" d="M30 0l3 0" stroke-width="3" stroke-linecap="round" stroke="#3e8410" style="animation-delay:-0.2s"></path>
</g><g style="transform:rotate(90deg);transform-origin:0px 0px">
  <path class="ld-pop" d="M30 0l7 0" stroke-width="3" stroke-linecap="round" stroke="#3e8410" style="animation-delay:-0.2s"></path>
</g><g style="transform:rotate(112.5deg);transform-origin:0px 0px">
  <path class="ld-pop" d="M30 0l3 0" stroke-width="3" stroke-linecap="round" stroke="#3e8410" style="animation-delay:-0.2s"></path>
</g><g style="transform:rotate(135deg);transform-origin:0px 0px">
  <path class="ld-pop" d="M30 0l7 0" stroke-width="3" stroke-linecap="round" stroke="#3e8410" style="animation-delay:-0.2s"></path>
</g><g style="transform:rotate(157.5deg);transform-origin:0px 0px">
  <path class="ld-pop" d="M30 0l3 0" stroke-width="3" stroke-linecap="round" stroke="#3e8410" style="animation-delay:-0.2s"></path>
</g><g style="transform:rotate(180deg);transform-origin:0px 0px">
  <path class="ld-pop" d="M30 0l7 0" stroke-width="3" stroke-linecap="round" stroke="#3e8410" style="animation-delay:-0.2s"></path>
</g><g style="transform:rotate(202.5deg);transform-origin:0px 0px">
  <path class="ld-pop" d="M30 0l3 0" stroke-width="3" stroke-linecap="round" stroke="#3e8410" style="animation-delay:-0.2s"></path>
</g><g style="transform:rotate(225deg);transform-origin:0px 0px">
  <path class="ld-pop" d="M30 0l7 0" stroke-width="3" stroke-linecap="round" stroke="#3e8410" style="animation-delay:-0.2s"></path>
</g><g style="transform:rotate(247.5deg);transform-origin:0px 0px">
  <path class="ld-pop" d="M30 0l3 0" stroke-width="3" stroke-linecap="round" stroke="#3e8410" style="animation-delay:-0.2s"></path>
</g><g style="transform:rotate(270deg);transform-origin:0px 0px">
  <path class="ld-pop" d="M30 0l7 0" stroke-width="3" stroke-linecap="round" stroke="#3e8410" style="animation-delay:-0.2s"></path>
</g><g style="transform:rotate(292.5deg);transform-origin:0px 0px">
  <path class="ld-pop" d="M30 0l3 0" stroke-width="3" stroke-linecap="round" stroke="#3e8410" style="animation-delay:-0.2s"></path>
</g><g style="transform:rotate(315deg);transform-origin:0px 0px">
  <path class="ld-pop" d="M30 0l7 0" stroke-width="3" stroke-linecap="round" stroke="#3e8410" style="animation-delay:-0.2s"></path>
</g><g style="transform:rotate(337.5deg);transform-origin:0px 0px">
  <path class="ld-pop" d="M30 0l3 0" stroke-width="3" stroke-linecap="round" stroke="#3e8410" style="animation-delay:-0.2s"></path>
</g></g></g><g transform="translate(-116.3757649586068,0.6044262143615509) scale(0.5132589205871754)"><g class="ld-explode" style="animation-delay:-0.3s"><g style="transform:rotate(0deg);transform-origin:0px 0px">
  <path class="ld-pop" d="M30 0l7 0" stroke-width="3" stroke-linecap="round" stroke="#c44129" style="animation-delay:-0.3s"></path>
</g><g style="transform:rotate(22.5deg);transform-origin:0px 0px">
  <path class="ld-pop" d="M30 0l3 0" stroke-width="3" stroke-linecap="round" stroke="#c44129" style="animation-delay:-0.3s"></path>
</g><g style="transform:rotate(45deg);transform-origin:0px 0px">
  <path class="ld-pop" d="M30 0l7 0" stroke-width="3" stroke-linecap="round" stroke="#c44129" style="animation-delay:-0.3s"></path>
</g><g style="transform:rotate(67.5deg);transform-origin:0px 0px">
  <path class="ld-pop" d="M30 0l3 0" stroke-width="3" stroke-linecap="round" stroke="#c44129" style="animation-delay:-0.3s"></path>
</g><g style="transform:rotate(90deg);transform-origin:0px 0px">
  <path class="ld-pop" d="M30 0l7 0" stroke-width="3" stroke-linecap="round" stroke="#c44129" style="animation-delay:-0.3s"></path>
</g><g style="transform:rotate(112.5deg);transform-origin:0px 0px">
  <path class="ld-pop" d="M30 0l3 0" stroke-width="3" stroke-linecap="round" stroke="#c44129" style="animation-delay:-0.3s"></path>
</g><g style="transform:rotate(135deg);transform-origin:0px 0px">
  <path class="ld-pop" d="M30 0l7 0" stroke-width="3" stroke-linecap="round" stroke="#c44129" style="animation-delay:-0.3s"></path>
</g><g style="transform:rotate(157.5deg);transform-origin:0px 0px">
  <path class="ld-pop" d="M30 0l3 0" stroke-width="3" stroke-linecap="round" stroke="#c44129" style="animation-delay:-0.3s"></path>
</g><g style="transform:rotate(180deg);transform-origin:0px 0px">
  <path class="ld-pop" d="M30 0l7 0" stroke-width="3" stroke-linecap="round" stroke="#c44129" style="animation-delay:-0.3s"></path>
</g><g style="transform:rotate(202.5deg);transform-origin:0px 0px">
  <path class="ld-pop" d="M30 0l3 0" stroke-width="3" stroke-linecap="round" stroke="#c44129" style="animation-delay:-0.3s"></path>
</g><g style="transform:rotate(225deg);transform-origin:0px 0px">
  <path class="ld-pop" d="M30 0l7 0" stroke-width="3" stroke-linecap="round" stroke="#c44129" style="animation-delay:-0.3s"></path>
</g><g style="transform:rotate(247.5deg);transform-origin:0px 0px">
  <path class="ld-pop" d="M30 0l3 0" stroke-width="3" stroke-linecap="round" stroke="#c44129" style="animation-delay:-0.3s"></path>
</g><g style="transform:rotate(270deg);transform-origin:0px 0px">
  <path class="ld-pop" d="M30 0l7 0" stroke-width="3" stroke-linecap="round" stroke="#c44129" style="animation-delay:-0.3s"></path>
</g><g style="transform:rotate(292.5deg);transform-origin:0px 0px">
  <path class="ld-pop" d="M30 0l3 0" stroke-width="3" stroke-linecap="round" stroke="#c44129" style="animation-delay:-0.3s"></path>
</g><g style="transform:rotate(315deg);transform-origin:0px 0px">
  <path class="ld-pop" d="M30 0l7 0" stroke-width="3" stroke-linecap="round" stroke="#c44129" style="animation-delay:-0.3s"></path>
</g><g style="transform:rotate(337.5deg);transform-origin:0px 0px">
  <path class="ld-pop" d="M30 0l3 0" stroke-width="3" stroke-linecap="round" stroke="#c44129" style="animation-delay:-0.3s"></path>
</g></g></g><g transform="translate(-2.610317625172241,-54.68271089609745) scale(0.6576250878798352)"><g class="ld-explode" style="animation-delay:-0.4s"><g style="transform:rotate(0deg);transform-origin:0px 0px">
  <path class="ld-pop" d="M30 0l7 0" stroke-width="3" stroke-linecap="round" stroke="#ec9332" style="animation-delay:-0.4s"></path>
</g><g style="transform:rotate(22.5deg);transform-origin:0px 0px">
  <path class="ld-pop" d="M30 0l3 0" stroke-width="3" stroke-linecap="round" stroke="#ec9332" style="animation-delay:-0.4s"></path>
</g><g style="transform:rotate(45deg);transform-origin:0px 0px">
  <path class="ld-pop" d="M30 0l7 0" stroke-width="3" stroke-linecap="round" stroke="#ec9332" style="animation-delay:-0.4s"></path>
</g><g style="transform:rotate(67.5deg);transform-origin:0px 0px">
  <path class="ld-pop" d="M30 0l3 0" stroke-width="3" stroke-linecap="round" stroke="#ec9332" style="animation-delay:-0.4s"></path>
</g><g style="transform:rotate(90deg);transform-origin:0px 0px">
  <path class="ld-pop" d="M30 0l7 0" stroke-width="3" stroke-linecap="round" stroke="#ec9332" style="animation-delay:-0.4s"></path>
</g><g style="transform:rotate(112.5deg);transform-origin:0px 0px">
  <path class="ld-pop" d="M30 0l3 0" stroke-width="3" stroke-linecap="round" stroke="#ec9332" style="animation-delay:-0.4s"></path>
</g><g style="transform:rotate(135deg);transform-origin:0px 0px">
  <path class="ld-pop" d="M30 0l7 0" stroke-width="3" stroke-linecap="round" stroke="#ec9332" style="animation-delay:-0.4s"></path>
</g><g style="transform:rotate(157.5deg);transform-origin:0px 0px">
  <path class="ld-pop" d="M30 0l3 0" stroke-width="3" stroke-linecap="round" stroke="#ec9332" style="animation-delay:-0.4s"></path>
</g><g style="transform:rotate(180deg);transform-origin:0px 0px">
  <path class="ld-pop" d="M30 0l7 0" stroke-width="3" stroke-linecap="round" stroke="#ec9332" style="animation-delay:-0.4s"></path>
</g><g style="transform:rotate(202.5deg);transform-origin:0px 0px">
  <path class="ld-pop" d="M30 0l3 0" stroke-width="3" stroke-linecap="round" stroke="#ec9332" style="animation-delay:-0.4s"></path>
</g><g style="transform:rotate(225deg);transform-origin:0px 0px">
  <path class="ld-pop" d="M30 0l7 0" stroke-width="3" stroke-linecap="round" stroke="#ec9332" style="animation-delay:-0.4s"></path>
</g><g style="transform:rotate(247.5deg);transform-origin:0px 0px">
  <path class="ld-pop" d="M30 0l3 0" stroke-width="3" stroke-linecap="round" stroke="#ec9332" style="animation-delay:-0.4s"></path>
</g><g style="transform:rotate(270deg);transform-origin:0px 0px">
  <path class="ld-pop" d="M30 0l7 0" stroke-width="3" stroke-linecap="round" stroke="#ec9332" style="animation-delay:-0.4s"></path>
</g><g style="transform:rotate(292.5deg);transform-origin:0px 0px">
  <path class="ld-pop" d="M30 0l3 0" stroke-width="3" stroke-linecap="round" stroke="#ec9332" style="animation-delay:-0.4s"></path>
</g><g style="transform:rotate(315deg);transform-origin:0px 0px">
  <path class="ld-pop" d="M30 0l7 0" stroke-width="3" stroke-linecap="round" stroke="#ec9332" style="animation-delay:-0.4s"></path>
</g><g style="transform:rotate(337.5deg);transform-origin:0px 0px">
  <path class="ld-pop" d="M30 0l3 0" stroke-width="3" stroke-linecap="round" stroke="#ec9332" style="animation-delay:-0.4s"></path>
</g></g></g><g transform="translate(39.67873514343574,7.7516317201766425) scale(0.5937000015440489)"><g class="ld-explode" style="animation-delay:-0.5s"><g style="transform:rotate(0deg);transform-origin:0px 0px">
  <path class="ld-pop" d="M30 0l7 0" stroke-width="3" stroke-linecap="round" stroke="#3e8410" style="animation-delay:-0.5s"></path>
</g><g style="transform:rotate(22.5deg);transform-origin:0px 0px">
  <path class="ld-pop" d="M30 0l3 0" stroke-width="3" stroke-linecap="round" stroke="#3e8410" style="animation-delay:-0.5s"></path>
</g><g style="transform:rotate(45deg);transform-origin:0px 0px">
  <path class="ld-pop" d="M30 0l7 0" stroke-width="3" stroke-linecap="round" stroke="#3e8410" style="animation-delay:-0.5s"></path>
</g><g style="transform:rotate(67.5deg);transform-origin:0px 0px">
  <path class="ld-pop" d="M30 0l3 0" stroke-width="3" stroke-linecap="round" stroke="#3e8410" style="animation-delay:-0.5s"></path>
</g><g style="transform:rotate(90deg);transform-origin:0px 0px">
  <path class="ld-pop" d="M30 0l7 0" stroke-width="3" stroke-linecap="round" stroke="#3e8410" style="animation-delay:-0.5s"></path>
</g><g style="transform:rotate(112.5deg);transform-origin:0px 0px">
  <path class="ld-pop" d="M30 0l3 0" stroke-width="3" stroke-linecap="round" stroke="#3e8410" style="animation-delay:-0.5s"></path>
</g><g style="transform:rotate(135deg);transform-origin:0px 0px">
  <path class="ld-pop" d="M30 0l7 0" stroke-width="3" stroke-linecap="round" stroke="#3e8410" style="animation-delay:-0.5s"></path>
</g><g style="transform:rotate(157.5deg);transform-origin:0px 0px">
  <path class="ld-pop" d="M30 0l3 0" stroke-width="3" stroke-linecap="round" stroke="#3e8410" style="animation-delay:-0.5s"></path>
</g><g style="transform:rotate(180deg);transform-origin:0px 0px">
  <path class="ld-pop" d="M30 0l7 0" stroke-width="3" stroke-linecap="round" stroke="#3e8410" style="animation-delay:-0.5s"></path>
</g><g style="transform:rotate(202.5deg);transform-origin:0px 0px">
  <path class="ld-pop" d="M30 0l3 0" stroke-width="3" stroke-linecap="round" stroke="#3e8410" style="animation-delay:-0.5s"></path>
</g><g style="transform:rotate(225deg);transform-origin:0px 0px">
  <path class="ld-pop" d="M30 0l7 0" stroke-width="3" stroke-linecap="round" stroke="#3e8410" style="animation-delay:-0.5s"></path>
</g><g style="transform:rotate(247.5deg);transform-origin:0px 0px">
  <path class="ld-pop" d="M30 0l3 0" stroke-width="3" stroke-linecap="round" stroke="#3e8410" style="animation-delay:-0.5s"></path>
</g><g style="transform:rotate(270deg);transform-origin:0px 0px">
  <path class="ld-pop" d="M30 0l7 0" stroke-width="3" stroke-linecap="round" stroke="#3e8410" style="animation-delay:-0.5s"></path>
</g><g style="transform:rotate(292.5deg);transform-origin:0px 0px">
  <path class="ld-pop" d="M30 0l3 0" stroke-width="3" stroke-linecap="round" stroke="#3e8410" style="animation-delay:-0.5s"></path>
</g><g style="transform:rotate(315deg);transform-origin:0px 0px">
  <path class="ld-pop" d="M30 0l7 0" stroke-width="3" stroke-linecap="round" stroke="#3e8410" style="animation-delay:-0.5s"></path>
</g><g style="transform:rotate(337.5deg);transform-origin:0px 0px">
  <path class="ld-pop" d="M30 0l3 0" stroke-width="3" stroke-linecap="round" stroke="#3e8410" style="animation-delay:-0.5s"></path>
</g></g></g><g transform="translate(38.89109255489568,31.015069099640826) scale(0.920571476621038)"><g class="ld-explode" style="animation-delay:-0.6s"><g style="transform:rotate(0deg);transform-origin:0px 0px">
  <path class="ld-pop" d="M30 0l7 0" stroke-width="3" stroke-linecap="round" stroke="#c44129" style="animation-delay:-0.6s"></path>
</g><g style="transform:rotate(22.5deg);transform-origin:0px 0px">
  <path class="ld-pop" d="M30 0l3 0" stroke-width="3" stroke-linecap="round" stroke="#c44129" style="animation-delay:-0.6s"></path>
</g><g style="transform:rotate(45deg);transform-origin:0px 0px">
  <path class="ld-pop" d="M30 0l7 0" stroke-width="3" stroke-linecap="round" stroke="#c44129" style="animation-delay:-0.6s"></path>
</g><g style="transform:rotate(67.5deg);transform-origin:0px 0px">
  <path class="ld-pop" d="M30 0l3 0" stroke-width="3" stroke-linecap="round" stroke="#c44129" style="animation-delay:-0.6s"></path>
</g><g style="transform:rotate(90deg);transform-origin:0px 0px">
  <path class="ld-pop" d="M30 0l7 0" stroke-width="3" stroke-linecap="round" stroke="#c44129" style="animation-delay:-0.6s"></path>
</g><g style="transform:rotate(112.5deg);transform-origin:0px 0px">
  <path class="ld-pop" d="M30 0l3 0" stroke-width="3" stroke-linecap="round" stroke="#c44129" style="animation-delay:-0.6s"></path>
</g><g style="transform:rotate(135deg);transform-origin:0px 0px">
  <path class="ld-pop" d="M30 0l7 0" stroke-width="3" stroke-linecap="round" stroke="#c44129" style="animation-delay:-0.6s"></path>
</g><g style="transform:rotate(157.5deg);transform-origin:0px 0px">
  <path class="ld-pop" d="M30 0l3 0" stroke-width="3" stroke-linecap="round" stroke="#c44129" style="animation-delay:-0.6s"></path>
</g><g style="transform:rotate(180deg);transform-origin:0px 0px">
  <path class="ld-pop" d="M30 0l7 0" stroke-width="3" stroke-linecap="round" stroke="#c44129" style="animation-delay:-0.6s"></path>
</g><g style="transform:rotate(202.5deg);transform-origin:0px 0px">
  <path class="ld-pop" d="M30 0l3 0" stroke-width="3" stroke-linecap="round" stroke="#c44129" style="animation-delay:-0.6s"></path>
</g><g style="transform:rotate(225deg);transform-origin:0px 0px">
  <path class="ld-pop" d="M30 0l7 0" stroke-width="3" stroke-linecap="round" stroke="#c44129" style="animation-delay:-0.6s"></path>
</g><g style="transform:rotate(247.5deg);transform-origin:0px 0px">
  <path class="ld-pop" d="M30 0l3 0" stroke-width="3" stroke-linecap="round" stroke="#c44129" style="animation-delay:-0.6s"></path>
</g><g style="transform:rotate(270deg);transform-origin:0px 0px">
  <path class="ld-pop" d="M30 0l7 0" stroke-width="3" stroke-linecap="round" stroke="#c44129" style="animation-delay:-0.6s"></path>
</g><g style="transform:rotate(292.5deg);transform-origin:0px 0px">
  <path class="ld-pop" d="M30 0l3 0" stroke-width="3" stroke-linecap="round" stroke="#c44129" style="animation-delay:-0.6s"></path>
</g><g style="transform:rotate(315deg);transform-origin:0px 0px">
  <path class="ld-pop" d="M30 0l7 0" stroke-width="3" stroke-linecap="round" stroke="#c44129" style="animation-delay:-0.6s"></path>
</g><g style="transform:rotate(337.5deg);transform-origin:0px 0px">
  <path class="ld-pop" d="M30 0l3 0" stroke-width="3" stroke-linecap="round" stroke="#c44129" style="animation-delay:-0.6s"></path>
</g></g></g>
  </g>
  <g>
  <g><g class="path" style="transform: translate(0px, 0px); transform-origin: -163.03px 4.36203px; animation: 1s linear -0.318214s infinite normal forwards running bounceAlt-2845b61c-e689-440c-a36b-097acbeee683;"><path d="M28.32 2.02L28.08 1.87L27.89 1.73L27.70 1.49L27.60 1.25L27.46 0.91L27.46 0.62L27.50 0.24L27.65-0.38L27.79-0.91L27.89-1.44L27.98-2.02L28.03-2.50L28.13-2.98L28.22-3.55L28.32-4.18L28.46-4.75L28.66-5.95L28.90-7.34L28.99-8.45L28.99-8.98L28.66-8.74L27.94-7.87L26.93-6.67L25.92-5.33L25.39-4.61L24.86-3.84L24.38-3.07L24-2.40L23.47-1.49L22.99-0.91L22.51-0.72L21.94-0.72L21.55-0.86L21.26-1.15L21.02-1.54L20.98-1.97L21.07-2.40L21.50-3.12L22.22-4.18L23.33-5.66L24.05-6.62L24.77-7.68L25.49-8.64L26.06-9.50L26.54-10.22L26.98-10.85L27.36-11.38L27.60-11.66L27.74-11.81L27.84-12L27.98-12.14L28.03-12.29L28.13-12.43L28.27-12.58L28.46-12.72L28.66-12.86L28.90-13.01L29.04-13.20L29.18-13.39L29.28-13.54L29.33-13.82L29.33-14.45L29.38-15.31L29.38-16.27L29.42-18.67L29.95-19.15L30.24-19.39L30.48-19.54L30.77-19.58L31.15-19.54L31.68-19.39L32.11-19.15L32.45-18.82L32.59-18.38L32.59-18.14L32.59-17.76L32.50-17.33L32.40-16.90L32.26-16.32L32.16-15.50L32.06-14.64L31.97-13.78L31.87-13.01L31.82-12.34L31.78-11.86L31.73-11.66L31.68-11.47L31.63-10.99L31.58-10.32L31.49-9.50L31.39-8.50L31.25-7.30L31.10-6L30.91-4.85L30.77-3.65L30.62-2.50L30.53-1.44L30.48-0.58L30.43 0.58L30.29 1.34L30.05 1.78L29.57 2.02L29.18 2.16L28.94 2.21L28.70 2.16L28.32 2.02" fill="#0560bd" stroke="none" stroke-width="none" transform="translate(-189.81500244140625,13.047031685965411)" style="fill: rgb(196, 65, 41);"></path></g><g class="path" style="transform: translate(0px, 0px); transform-origin: -176.495px 4.28703px; animation: 1s linear -0.306429s infinite normal forwards running bounceAlt-2845b61c-e689-440c-a36b-097acbeee683;"><path d="M11.81-1.73L11.14-2.16L10.80-2.88L10.85-4.18L11.23-6.14L11.47-7.20L11.66-8.21L11.81-9.02L11.95-9.60L12.19-11.28L12.38-12.58L12.53-13.54L12.58-14.06L12.62-14.64L12.72-15.07L12.96-15.41L13.30-15.65L13.78-15.84L14.26-15.89L14.69-15.79L15.17-15.55L15.65-15.07L15.84-14.45L15.74-13.82L15.41-13.20L15.02-12.38L14.50-11.04L14.02-9.46L13.73-8.11L13.58-6.91L13.54-5.57L13.54-4.32L13.68-3.31L13.73-2.83L13.58-2.40L13.30-2.02L12.96-1.78L12.58-1.68L12.29-1.63L12.05-1.63L11.81-1.73" fill="#0560bd" stroke="none" stroke-width="none" transform="translate(-189.81500244140625,13.047031685965411)" style="fill: rgb(236, 147, 50);"></path></g><g class="path" style="transform: translate(0px, 0px); transform-origin: -181.485px -4.90797px; animation: 1s linear -0.294643s infinite normal forwards running bounceAlt-2845b61c-e689-440c-a36b-097acbeee683;"><path d="M-1.78-3.98L-2.06-4.27L-2.30-4.61L-2.40-4.99L-2.35-5.42L-2.06-6.05L-1.44-7.20L-0.58-8.59L0.29-10.03L1.01-11.09L2.02-12.48L3.31-14.16L4.75-16.08L5.52-17.04L6.38-18.14L7.20-19.30L7.92-20.26L8.59-21.22L9.26-22.18L9.89-23.09L10.42-23.76L10.90-24.48L11.52-25.30L12.10-26.16L12.67-26.98L13.20-27.79L13.82-28.56L14.35-29.23L14.83-29.76L15.17-30.14L15.50-30.53L15.74-30.86L15.89-31.10L15.98-31.34L16.13-31.54L16.32-31.73L16.51-31.92L17.62-32.21L18.53-31.87L19.06-31.01L18.96-29.90L18.72-29.62L18.38-29.33L18.05-29.14L17.71-29.04L17.52-28.94L17.14-28.61L16.70-28.18L16.18-27.65L15.65-27.02L15.12-26.50L14.69-26.02L14.40-25.68L14.06-25.30L13.63-24.67L13.06-23.86L12.43-22.94L11.71-21.89L10.90-20.69L9.98-19.49L9.22-18.43L8.45-17.42L7.63-16.37L6.91-15.46L6.34-14.69L5.86-14.02L5.28-13.30L4.75-12.62L4.27-12L2.78-10.13L1.63-8.35L0.86-6.82L0.53-5.62L0.43-4.94L0.29-4.42L0.10-4.08L-0.19-3.89L-0.62-3.74L-0.96-3.70L-1.34-3.79L-1.78-3.98" fill="#0560bd" stroke="none" stroke-width="none" transform="translate(-189.81500244140625,13.047031685965411)" style="fill: rgb(62, 132, 16);"></path></g><g class="path" style="transform: translate(0px, 0px); transform-origin: -147.095px 5.34203px; animation: 1s linear -0.282857s infinite normal forwards running bounceAlt-2845b61c-e689-440c-a36b-097acbeee683;"><path d="M35.90-5.76L35.71-5.90L35.57-6.10L35.38-6.34L35.23-6.58L35.09-6.91L35.04-7.15L35.09-7.39L35.23-7.63L35.33-7.82L35.52-8.06L35.71-8.26L35.86-8.45L36.10-8.59L36.38-8.69L36.67-8.74L37.06-8.69L37.92-8.64L39.07-8.74L40.51-8.93L42.34-9.26L43.87-9.50L45.84-9.70L47.81-9.84L49.34-9.84L49.68-9.74L50.06-9.46L50.30-9.07L50.40-8.74L50.35-8.30L50.16-7.92L49.87-7.63L49.54-7.49L49.30-7.44L48.86-7.39L48.38-7.39L47.81-7.39L45.36-7.20L42.19-6.77L39.31-6.24L37.58-5.76L37.15-5.62L36.72-5.57L36.29-5.62L35.90-5.76" fill="#0560bd" stroke="none" stroke-width="none" transform="translate(-189.81500244140625,13.047031685965411)" style="fill: rgb(5, 96, 189);"></path></g><g class="path" style="transform: translate(0px, 0px); transform-origin: -157.8px -12.493px; animation: 1s linear -0.271071s infinite normal forwards running bounceAlt-2845b61c-e689-440c-a36b-097acbeee683;"><path d="M36.19-19.58L35.90-19.78L35.66-20.11L35.52-20.45L35.57-20.74L35.66-20.93L35.86-21.26L36.10-21.74L36.38-22.22L36.91-23.23L37.30-24.10L37.54-24.82L37.58-25.39L37.58-25.63L37.49-25.78L37.30-25.82L36.96-25.82L35.62-25.68L34.13-25.10L32.26-24.14L29.90-22.70L28.66-21.94L27.55-21.41L26.64-21.07L25.87-20.98L25.34-21.07L24.86-21.31L24.43-21.74L24.14-22.27L23.81-22.99L24.43-24.53L24.96-25.97L25.34-27.41L25.63-28.66L25.78-29.71L25.78-30.19L25.87-30.53L26.02-30.77L26.26-31.06L27.12-31.54L27.98-31.44L28.66-30.86L28.94-30L28.90-29.66L28.85-29.38L28.70-29.09L28.51-28.75L28.37-28.51L28.22-28.32L28.18-28.13L28.13-27.98L28.08-27.84L27.98-27.50L27.79-27.02L27.60-26.54L27.36-25.97L27.17-25.44L27.02-24.96L26.98-24.58L26.93-24.24L26.93-24.10L26.98-24.05L27.17-24.05L27.36-24.14L27.65-24.24L27.98-24.34L28.37-24.48L28.99-24.72L30.05-25.20L31.34-25.82L32.78-26.54L34.75-27.55L35.95-28.08L36.72-28.32L37.49-28.42L38.64-28.46L39.46-27.70L40.22-26.93L40.13-25.78L40.08-25.10L39.94-24.53L39.70-23.90L39.26-23.04L38.59-21.79L37.92-20.69L37.34-19.92L36.91-19.58L36.77-19.54L36.58-19.54L36.38-19.58L36.19-19.58" fill="#0560bd" stroke="none" stroke-width="none" transform="translate(-189.81500244140625,13.047031685965411)" style="fill: rgb(196, 65, 41);"></path></g><g class="path" style="transform: translate(0px, 0px); transform-origin: -117.24px 1.76703px; animation: 1s linear -0.259286s infinite normal forwards running bounceAlt-2845b61c-e689-440c-a36b-097acbeee683;"><path d="M60.96 7.44L60.72 7.20L60.53 6.82L60.38 6.38L60.43 6L60.48 5.81L60.67 5.52L60.91 5.18L61.15 4.85L61.97 3.74L63.22 1.92L64.61-0.14L65.81-2.02L66.72-3.46L67.54-4.94L68.30-6.38L68.93-7.78L69.31-8.54L69.65-9.26L69.98-9.89L70.27-10.32L70.75-11.09L70.18-11.57L69.65-12.14L69.22-12.96L68.88-13.87L68.69-14.88L68.54-15.89L67.68-15.50L67.30-15.31L66.82-15.12L66.34-14.93L65.86-14.78L65.47-14.59L65.09-14.45L64.80-14.30L64.66-14.21L63.84-13.87L62.98-14.02L62.30-14.54L62.02-15.36L62.11-15.79L62.26-16.22L62.54-16.61L62.83-16.85L62.98-16.94L63.22-16.99L63.46-17.04L63.70-17.09L64.61-17.23L66-17.57L67.44-17.95L68.40-18.29L68.64-18.43L68.78-18.53L68.88-18.72L68.93-19.01L69.02-19.78L69.26-20.88L69.65-22.18L70.18-23.57L70.66-25.01L71.04-26.30L71.23-27.41L71.28-28.32L71.28-28.75L71.38-29.04L71.52-29.28L71.86-29.57L72.43-30L72.96-30.14L73.49-30L74.02-29.62L74.40-29.14L74.54-28.66L74.50-28.13L74.26-27.50L73.39-25.30L72.43-22.80L71.76-20.74L71.52-19.78L71.62-19.82L71.86-19.87L72.19-19.97L72.62-20.11L73.06-20.26L73.54-20.40L74.02-20.50L74.40-20.59L74.83-20.64L75.12-20.78L75.36-21.07L75.65-21.60L76.13-22.56L76.51-23.52L76.80-24.43L76.99-25.30L77.09-25.63L77.18-26.02L77.28-26.30L77.38-26.45L78-26.83L78.72-26.93L79.49-26.78L79.97-26.35L80.21-25.87L80.26-25.34L80.16-24.77L79.92-24.34L79.78-24.14L79.63-23.95L79.49-23.71L79.39-23.57L79.30-23.33L79.10-22.99L78.86-22.61L78.62-22.22L78.34-21.70L78.19-21.41L78.24-21.31L78.38-21.31L79.49-21.50L81.22-21.79L82.90-22.08L83.76-22.18L84.10-22.03L84.43-21.74L84.67-21.36L84.77-21.02L84.77-20.88L84.67-20.69L84.58-20.50L84.43-20.30L84.19-20.11L83.90-19.97L83.52-19.87L82.94-19.82L81.65-19.63L79.82-19.39L78.10-19.10L77.14-18.91L76.70-18.34L76.03-17.09L75.31-15.50L74.69-13.92L74.45-13.30L74.26-12.72L74.11-12.29L74.02-12.05L74.02-11.86L74.40-11.71L75.31-11.42L76.99-11.09L77.86-10.90L78.62-10.80L79.39-10.75L80.16-10.75L81.12-10.75L81.70-10.61L82.08-10.32L82.22-9.84L82.18-9.12L81.84-8.59L81.17-8.26L80.35-8.30L79.92-8.35L79.30-8.45L78.53-8.54L77.76-8.64L76.80-8.78L75.94-8.98L75.12-9.17L74.35-9.41L73.73-9.65L73.25-9.79L72.91-9.89L72.77-9.94L72.72-9.84L72.62-9.60L72.48-9.26L72.29-8.88L71.95-8.16L71.42-7.25L70.51-5.86L69.12-3.70L68.64-2.93L68.06-1.92L67.39-0.86L66.82 0.19L66.19 1.25L65.57 2.30L64.99 3.22L64.56 3.94L64.18 4.51L63.79 5.09L63.50 5.66L63.31 6.05L62.93 6.82L62.59 7.25L62.21 7.54L61.73 7.58L61.49 7.58L61.30 7.54L61.10 7.49L60.96 7.44zM73.25-16.70L73.49-17.42L73.44-17.71L73.01-17.71L72.10-17.38L71.14-17.04L71.14-15.89L71.14-15.31L71.18-14.88L71.33-14.50L71.47-14.16L71.86-13.58L72.38-14.64L72.58-15.12L72.82-15.70L73.06-16.22L73.25-16.70" fill="#0560bd" stroke="none" stroke-width="none" transform="translate(-189.81500244140625,13.047031685965411)" style="fill: rgb(236, 147, 50);"></path></g><g class="path" style="transform: translate(0px, 0px); transform-origin: -91.315px -2.02797px; animation: 1s linear -0.2475s infinite normal forwards running bounceAlt-2845b61c-e689-440c-a36b-097acbeee683;"><path d="M90.91-0.34L90.72-0.38L90.53-0.53L90.38-0.72L90.24-0.91L89.95-1.39L90.62-2.98L91.58-5.14L92.26-6.91L92.78-8.30L93.12-9.46L93.41-10.70L93.41-11.28L93.02-11.33L92.16-11.09L90.77-10.70L89.28-10.18L87.94-9.65L87.12-9.26L86.69-9.07L86.16-9.02L85.63-9.07L85.15-9.26L84.86-9.55L84.67-9.98L84.58-10.46L84.62-10.94L84.77-11.33L85.06-11.71L85.39-12L85.63-12.10L86.21-12.19L86.83-12.29L87.70-12.48L88.99-12.77L90.91-13.25L92.30-13.68L93.12-14.02L93.46-14.30L93.41-14.50L93.22-14.78L92.88-15.17L92.50-15.60L91.92-16.22L91.58-16.66L91.44-17.04L91.39-17.66L91.39-18.53L91.49-19.49L91.63-20.35L91.82-20.93L92.11-21.65L92.74-22.99L93.41-24.62L94.03-26.02L94.37-26.88L93.98-26.74L93.36-26.50L92.83-26.16L92.35-25.78L92.06-25.49L91.68-25.10L91.20-24.91L90.62-24.86L90.10-24.96L89.66-25.20L89.38-25.44L89.23-25.78L89.09-26.16L89.09-26.83L89.38-27.36L90-27.84L91.10-28.42L92.40-28.99L93.41-29.38L94.37-29.62L95.33-29.76L96.38-29.86L97.06-29.18L97.39-28.80L97.58-28.51L97.73-28.27L97.78-27.98L97.68-27.46L97.44-26.78L97.06-25.97L96.48-25.06L95.71-23.76L95.09-22.46L94.61-21.26L94.32-20.11L94.13-18.96L94.18-18.24L94.42-17.71L94.99-17.09L95.38-16.66L95.71-16.27L95.95-15.89L96.10-15.60L96.29-15.02L96.82-15.31L97.10-15.41L97.39-15.55L97.68-15.65L97.97-15.74L98.30-15.89L98.78-16.03L99.26-16.22L99.79-16.42L100.66-16.70L101.66-16.99L103.30-17.38L105.94-17.95L106.75-18.14L107.71-18.34L108.58-18.58L109.34-18.72L110.50-18.96L111.26-19.01L111.74-18.86L112.13-18.53L112.32-18.14L112.42-17.76L112.32-17.33L112.08-16.94L111.65-16.66L110.74-16.32L109.01-15.94L106.08-15.31L104.59-14.98L103.15-14.59L101.52-14.11L99.60-13.44L98.98-13.25L98.35-13.01L97.73-12.82L97.20-12.67L96.14-12.34L95.14-9.22L94.70-7.92L94.32-6.77L94.03-5.86L93.89-5.33L93.41-3.84L92.88-2.35L92.45-1.20L92.16-0.62L91.87-0.43L91.58-0.29L91.25-0.29L90.91-0.34" fill="#0560bd" stroke="none" stroke-width="none" transform="translate(-189.81500244140625,13.047031685965411)" style="fill: rgb(62, 132, 16);"></path></g><g class="path" style="transform: translate(0px, 0px); transform-origin: -41.595px 16.647px; animation: 1s linear -0.235714s infinite normal forwards running bounceAlt-2845b61c-e689-440c-a36b-097acbeee683;"><path d="M145.44 7.97L145.44 7.97L145.25 7.73L145.15 7.44L145.10 7.06L145.15 6.72L145.39 6.38L145.87 5.95L146.59 5.33L147.22 4.85L147.79 4.32L148.22 3.89L148.46 3.55L148.66 3.22L148.75 2.98L148.66 2.74L148.51 2.45L148.32 2.21L148.08 1.92L147.84 1.68L147.60 1.44L147.31 1.20L147.17 0.96L147.07 0.67L147.02 0.29L147.12-0.34L147.41-0.77L147.89-1.06L148.46-1.15L149.04-1.10L149.42-0.96L149.81-0.48L150.43 0.43L150.91 1.15L151.15 1.73L151.30 2.21L151.34 2.83L151.34 3.41L151.30 3.89L151.10 4.27L150.77 4.80L149.90 5.81L148.70 6.91L147.50 7.82L146.54 8.30L146.40 8.35L146.16 8.30L145.97 8.26L145.78 8.21L145.44 7.97" fill="#0560bd" stroke="none" stroke-width="none" transform="translate(-189.81500244140625,13.047031685965411)" style="fill: rgb(5, 96, 189);"></path></g><g class="path" style="transform: translate(0px, 0px); transform-origin: 21.265px 13.287px; animation: 1s linear -0.223929s infinite normal forwards running bounceAlt-2845b61c-e689-440c-a36b-097acbeee683;"><path d="M217.10 7.58L215.62 6.19L213.79 4.51L212.21 3.07L211.49 2.40L211.34 2.26L210.91 1.87L210.38 1.39L209.66 0.82L208.90 0.14L208.13-0.53L207.41-1.20L206.83-1.73L206.30-2.21L205.58-2.83L204.82-3.46L204.10-4.08L202.61-5.38L201.79-6.34L201.60-7.10L201.89-7.82L202.51-8.35L203.33-8.50L204.10-8.26L204.72-7.68L204.86-7.44L205.10-7.15L205.30-6.96L205.49-6.77L205.87-6.43L206.59-5.76L207.60-4.85L208.70-3.79L211.15-1.44L212.74 0.05L213.70 0.96L214.27 1.44L214.61 1.73L215.18 2.26L215.86 2.88L216.62 3.65L217.39 4.37L218.21 5.09L218.88 5.71L219.41 6.10L220.18 6.82L220.56 7.44L220.56 8.02L220.18 8.64L219.98 8.78L219.79 8.88L219.55 8.93L219.26 8.98L218.88 8.93L218.50 8.74L217.97 8.30L217.10 7.58" fill="#0560bd" stroke="none" stroke-width="none" transform="translate(-189.81500244140625,13.047031685965411)" style="fill: rgb(196, 65, 41);"></path></g><g class="path" style="transform: translate(0px, 0px); transform-origin: -8.33px -1.06297px; animation: 1s linear -0.212143s infinite normal forwards running bounceAlt-2845b61c-e689-440c-a36b-097acbeee683;"><path d="M173.86-0.05L173.47-0.29L173.14-0.67L172.99-1.10L172.99-1.58L173.09-1.82L173.23-2.06L173.52-2.35L173.81-2.64L174.91-3.74L176.11-5.28L177.55-7.39L179.28-10.22L180-11.38L180.58-12.38L181.06-13.10L181.30-13.54L181.44-13.68L181.49-13.87L181.54-14.02L181.54-14.16L181.25-14.45L180.62-14.83L179.86-15.22L179.18-15.46L178.70-15.70L178.27-16.03L178.03-16.51L177.94-16.99L178.03-17.47L178.27-17.90L178.61-18.29L179.04-18.48L179.57-18.58L180.10-18.48L180.53-18.34L180.86-18.10L181.01-17.90L181.30-17.71L181.68-17.42L182.11-17.14L183.12-16.46L183.41-16.85L183.60-17.14L183.94-17.66L184.32-18.29L184.75-19.06L185.18-19.82L185.62-20.59L186-21.22L186.29-21.65L186.67-22.37L186.96-23.14L187.15-23.81L187.15-24.34L187.01-25.10L186.86-25.44L186.58-25.54L186.05-25.49L185.66-25.44L185.23-25.34L184.90-25.25L184.61-25.15L183.94-24.82L183.22-24.34L182.54-23.81L182.02-23.28L181.39-22.85L180.67-22.70L180-22.90L179.47-23.42L179.18-24.14L179.28-24.91L179.71-25.54L180.38-25.92L180.58-25.97L180.82-26.06L181.06-26.16L181.25-26.30L182.02-26.69L183.31-27.22L184.66-27.74L185.76-28.13L186.86-28.27L187.92-28.03L188.78-27.50L189.46-26.69L189.70-25.82L189.79-24.72L189.65-23.57L189.36-22.56L188.93-21.50L188.30-20.50L187.63-19.49L186.86-18.48L185.90-17.28L185.23-16.37L184.94-15.74L184.94-15.41L185.38-15.07L186.14-14.59L186.91-14.11L187.30-13.92L187.73-13.78L188.45-13.39L189.17-13.01L189.65-12.67L189.98-12.05L189.89-11.33L189.46-10.80L188.78-10.56L188.26-10.70L187.54-10.94L186.72-11.38L186-11.81L185.76-11.95L185.38-12.14L184.94-12.38L184.46-12.58L183.26-13.15L182.16-11.28L181.63-10.42L181.01-9.41L180.38-8.40L179.81-7.54L179.28-6.62L178.66-5.66L178.03-4.75L177.55-3.94L177.12-3.22L176.69-2.59L176.35-2.02L176.16-1.68L176.02-1.44L175.87-1.25L175.82-1.10L175.78-1.01L175.78-0.91L175.68-0.82L175.58-0.62L175.44-0.48L175.10-0.19L174.77 0L174.34 0.05L173.86-0.05" fill="#0560bd" stroke="none" stroke-width="none" transform="translate(-189.81500244140625,13.047031685965411)" style="fill: rgb(236, 147, 50);"></path></g><g class="path" style="transform: translate(0px, 0px); transform-origin: 7.8px 2.77703px; animation: 1s linear -0.200357s infinite normal forwards running bounceAlt-2845b61c-e689-440c-a36b-097acbeee683;"><path d="M192.86-2.93L192.53-3.50L192.43-4.13L192.72-4.80L193.30-5.62L193.58-6L193.97-6.53L194.35-7.10L194.64-7.68L194.98-8.35L195.46-9.12L195.94-9.94L196.42-10.66L197.38-12.19L198.19-13.68L198.91-15.02L199.39-16.18L199.68-16.94L200.02-17.47L200.45-17.71L201.02-17.86L201.41-17.90L201.70-17.86L201.94-17.71L202.27-17.42L202.66-16.90L202.80-16.37L202.66-15.79L202.22-15.02L200.88-13.06L199.78-11.38L198.91-9.98L198.24-8.78L197.86-8.02L197.38-7.20L196.90-6.38L196.46-5.66L196.13-5.09L195.74-4.46L195.50-3.98L195.31-3.60L195.17-3.36L195.02-3.12L194.88-2.93L194.74-2.78L194.26-2.64L193.73-2.64L193.25-2.74L192.86-2.93" fill="#0560bd" stroke="none" stroke-width="none" transform="translate(-189.81500244140625,13.047031685965411)" style="fill: rgb(62, 132, 16);"></path></g><g class="path" style="transform: translate(0px, 0px); transform-origin: 13.44px -11.023px; animation: 1s linear -0.188571s infinite normal forwards running bounceAlt-2845b61c-e689-440c-a36b-097acbeee683;"><path d="M204.77-14.69L204.67-14.78L204.53-14.98L204.48-15.17L204.43-15.31L204.53-15.60L204.77-16.08L205.06-16.70L205.44-17.38L206.93-19.97L208.03-22.27L208.70-24.10L208.90-25.25L208.85-25.44L208.70-25.54L208.51-25.63L208.13-25.63L207.26-25.58L206.21-25.25L204.91-24.58L203.28-23.62L202.13-22.90L201.22-22.22L200.35-21.50L199.39-20.59L198.72-19.92L198.05-19.34L197.52-18.96L197.23-18.72L196.70-18.58L196.22-18.62L195.79-18.82L195.41-19.15L195.12-19.58L195.02-20.11L195.07-20.69L195.31-21.36L195.60-22.03L195.98-23.14L196.46-24.72L197.09-26.69L197.38-28.03L197.66-29.52L197.81-30.96L197.81-31.97L197.76-32.40L197.81-32.69L197.95-32.93L198.29-33.22L198.72-33.60L199.20-33.74L199.68-33.74L200.21-33.55L200.74-33.07L201.02-32.45L201.02-31.78L200.74-31.20L200.64-31.06L200.59-30.86L200.50-30.62L200.45-30.43L200.35-30.10L200.21-29.57L200.02-28.99L199.82-28.37L199.39-26.88L198.96-25.15L198.67-23.66L198.58-22.99L198.77-22.99L199.15-23.28L199.87-23.76L200.98-24.58L202.90-25.82L205.06-26.93L207.22-27.70L208.90-28.03L209.38-28.03L209.71-27.94L210.05-27.84L210.38-27.60L211.01-27.12L211.34-26.69L211.49-26.11L211.49-25.34L211.49-24.62L211.39-24.14L211.20-23.62L210.86-22.94L210.58-22.42L210.24-21.89L209.95-21.36L209.66-20.98L208.94-19.78L208.08-18.24L207.26-16.80L206.78-15.79L206.35-14.98L205.82-14.54L205.30-14.40L204.77-14.69" fill="#0560bd" stroke="none" stroke-width="none" transform="translate(-189.81500244140625,13.047031685965411)" style="fill: rgb(5, 96, 189);"></path></g><g class="path" style="transform: translate(0px, 0px); transform-origin: 70.635px 1.64703px; animation: 1s linear -0.176786s infinite normal forwards running bounceAlt-2845b61c-e689-440c-a36b-097acbeee683;"><path d="M239.09 8.16L238.42 7.73L238.13 7.06L238.13 6.34L238.56 5.62L238.80 5.42L239.14 5.28L239.81 5.23L240.91 5.23L242.40 5.14L243.84 4.99L245.38 4.75L247.10 4.42L247.68 4.27L248.35 4.18L249.07 4.08L249.70 4.03L251.57 3.84L253.25 3.70L254.74 3.50L256.08 3.26L256.94 3.12L257.81 2.93L258.67 2.83L259.39 2.69L260.26 2.59L260.64 2.50L260.78 2.40L260.74 2.21L260.64 1.63L260.69 0.67L260.83-0.53L261.07-1.78L261.17-2.40L261.31-3.07L261.41-3.74L261.50-4.37L261.60-5.04L261.70-5.81L261.84-6.62L261.94-7.34L262.08-8.06L262.22-8.78L262.32-9.46L262.42-9.98L262.66-11.47L262.94-13.06L263.23-14.50L263.52-15.60L263.71-16.61L263.95-18L264.14-19.73L264.38-21.79L264.48-22.37L264.53-22.85L264.58-23.23L264.62-23.47L264.67-23.62L264.58-23.76L264.43-23.90L264.14-24.05L263.71-24.29L263.42-24.62L263.23-25.06L263.18-25.54L263.33-26.06L263.71-26.54L264.14-26.93L264.62-27.07L264.82-27.07L265.01-27.12L265.20-27.17L265.34-27.22L265.58-27.55L265.82-28.13L266.02-28.85L266.11-29.52L266.35-30.43L266.93-31.01L267.79-31.15L268.70-30.82L268.94-30.67L269.14-30.43L269.23-30.19L269.33-29.90L269.47-29.38L270.34-29.81L270.77-30L271.25-30.19L271.73-30.38L272.11-30.53L272.69-30.72L273.07-30.77L273.50-30.77L274.08-30.62L274.46-30.53L274.85-30.38L275.14-30.24L275.28-30.14L275.57-29.57L275.86-28.66L276.05-27.74L276-27.12L275.23-24.96L273.98-22.22L272.50-19.20L270.86-16.27L270.53-15.65L270.19-15.02L269.90-14.50L269.76-14.11L269.42-13.49L269.14-13.10L268.85-12.91L268.42-12.86L267.94-12.91L267.60-13.06L267.36-13.30L267.17-13.63L267.12-14.06L267.22-14.50L267.46-14.88L267.94-15.31L268.90-16.42L270.14-18.24L271.39-20.50L272.40-22.75L272.93-24.24L273.31-25.73L273.55-27.02L273.50-27.89L273.46-28.13L273.31-28.22L273.07-28.27L272.59-28.22L271.73-28.03L270.82-27.70L269.86-27.31L269.04-26.78L268.56-26.45L268.22-25.97L267.98-25.15L267.70-23.71L267.60-23.14L267.46-22.61L267.36-22.13L267.31-21.74L267.26-21.46L267.22-21.07L267.17-20.69L267.17-20.35L267.07-19.30L266.78-17.62L266.40-15.60L265.92-13.49L265.82-12.82L265.68-12.05L265.54-11.23L265.39-10.51L265.30-9.70L265.15-8.83L265.01-7.97L264.86-7.20L264.77-6.48L264.62-5.76L264.53-5.04L264.43-4.46L264.34-3.94L264.24-3.36L264.14-2.74L264.05-2.26L263.81-0.86L263.66 0.48L263.66 1.54L263.76 1.97L264.05 1.92L264.62 1.82L265.44 1.68L266.45 1.49L267.50 1.30L268.61 1.10L269.57 0.96L270.29 0.86L271.06 0.77L272.16 0.58L273.41 0.34L274.70 0.10L276.29-0.19L277.58-0.38L278.74-0.53L279.98-0.58L281.23-0.62L281.90-0.62L282.29-0.53L282.48-0.38L282.67-0.05L282.77 0.34L282.72 0.72L282.53 1.01L282 1.20L280.66 1.39L278.54 1.58L275.47 1.78L272.21 2.16L267.55 2.83L262.85 3.60L259.44 4.32L258.67 4.46L257.66 4.66L256.66 4.85L255.70 4.99L254.59 5.18L253.30 5.42L251.90 5.66L250.61 5.90L249.41 6.14L248.30 6.34L247.44 6.53L246.91 6.62L246.48 6.67L245.86 6.82L245.09 6.96L244.32 7.15L243.55 7.34L242.78 7.54L242.11 7.73L241.58 7.82L241.20 7.92L240.77 8.02L240.43 8.11L240.14 8.21L239.95 8.26L239.76 8.30L239.66 8.35L239.62 8.35L239.57 8.35L239.42 8.30L239.28 8.21L239.09 8.16" fill="#0560bd" stroke="none" stroke-width="none" transform="translate(-189.81500244140625,13.047031685965411)" style="fill: rgb(196, 65, 41);"></path></g><g class="path" style="transform: translate(0px, 0px); transform-origin: 51.745px 8.46703px; animation: 1s linear -0.165s infinite normal forwards running bounceAlt-2845b61c-e689-440c-a36b-097acbeee683;"><path d="M242.21 0.91L242.02 0.72L241.78 0.43L241.58 0L241.34-0.67L240.82-2.35L240.24-4.27L239.86-5.90L239.66-6.82L239.66-7.06L239.62-7.34L239.52-7.63L239.47-7.87L239.28-8.54L239.42-9.12L239.76-9.60L240.43-10.03L240.72-10.18L240.96-10.22L241.20-10.18L241.54-10.03L242.11-9.60L242.45-9.07L242.59-8.45L242.45-7.82L242.35-7.25L242.50-6.14L242.78-4.66L243.22-2.88L243.46-1.92L243.70-1.10L243.79-0.43L243.84-0.10L243.70 0.53L243.31 0.91L242.78 1.06L242.21 0.91" fill="#0560bd" stroke="none" stroke-width="none" transform="translate(-189.81500244140625,13.047031685965411)" style="fill: rgb(236, 147, 50);"></path></g><g class="path" style="transform: translate(0px, 0px); transform-origin: 67.945px -5.96297px; animation: 1s linear -0.153214s infinite normal forwards running bounceAlt-2845b61c-e689-440c-a36b-097acbeee683;"><path d="M253.87-13.63L253.30-14.16L252.96-14.93L252.82-16.27L252.77-18.67L252.72-20.11L252.67-21.36L252.58-22.27L252.53-22.75L252.48-23.71L252.96-24.43L253.73-24.82L254.69-24.72L255.17-24.43L255.50-24.10L255.65-23.62L255.65-23.14L255.50-21.79L255.36-20.11L255.31-18.53L255.31-17.38L255.41-16.51L255.60-16.13L256.03-16.13L256.80-16.42L257.76-16.94L258.82-17.62L259.78-18.38L260.59-19.15L261.02-19.58L261.36-19.87L261.65-20.02L261.94-20.02L262.37-19.97L262.70-19.73L262.94-19.44L263.04-19.06L262.99-18.72L262.66-18.34L261.94-17.62L260.59-16.42L258.96-15.07L257.71-14.16L256.75-13.58L255.94-13.34L255.22-13.20L254.74-13.20L254.35-13.34L253.87-13.63" fill="#0560bd" stroke="none" stroke-width="none" transform="translate(-189.81500244140625,13.047031685965411)" style="fill: rgb(62, 132, 16);"></path></g><g class="path" style="transform: translate(0px, 0px); transform-origin: 48.53px -3.32297px; animation: 1s linear -0.141429s infinite normal forwards running bounceAlt-2845b61c-e689-440c-a36b-097acbeee683;"><path d="M236.54-14.83L236.06-15.17L235.73-15.70L235.63-16.27L235.78-16.85L236.02-17.33L236.30-17.62L236.78-17.81L237.36-17.86L237.74-17.86L238.18-17.90L238.61-17.95L238.94-18L240.00-17.90L240.72-17.47L241.06-16.70L240.82-15.79L240.62-15.46L240.34-15.22L239.86-15.07L239.09-14.98L238.66-14.93L238.18-14.88L237.79-14.83L237.46-14.78L237.22-14.74L236.93-14.78L236.74-14.78L236.54-14.83" fill="#0560bd" stroke="none" stroke-width="none" transform="translate(-189.81500244140625,13.047031685965411)" style="fill: rgb(5, 96, 189);"></path></g><g class="path" style="transform: translate(0px, 0px); transform-origin: 68.425px -17.293px; animation: 1s linear -0.129643s infinite normal forwards running bounceAlt-2845b61c-e689-440c-a36b-097acbeee683;"><path d="M254.06-27.02L253.49-27.31L253.10-27.94L253.01-28.61L253.15-29.28L254.06-30.29L255.60-31.39L257.47-32.40L259.54-33.22L260.40-33.50L261.02-33.65L261.50-33.70L261.98-33.65L262.80-33.36L263.33-32.88L263.47-32.26L263.28-31.58L262.94-31.20L262.51-31.01L262.03-31.01L261.50-31.10L261.17-31.25L260.88-31.30L260.54-31.25L260.02-31.10L259.63-31.01L259.25-30.86L258.91-30.72L258.62-30.58L257.95-30.14L257.23-29.57L256.66-28.90L256.27-28.32L256.08-27.98L255.94-27.74L255.74-27.50L255.60-27.36L255.31-27.17L254.93-27.02L254.50-26.98L254.06-27.02" fill="#0560bd" stroke="none" stroke-width="none" transform="translate(-189.81500244140625,13.047031685965411)" style="fill: rgb(196, 65, 41);"></path></g><g class="path" style="transform: translate(0px, 0px); transform-origin: 144.58px 11.727px; animation: 1s linear -0.117857s infinite normal forwards running bounceAlt-2845b61c-e689-440c-a36b-097acbeee683;"><path d="M329.52 9.07L328.37 8.83L327.12 8.40L326.06 7.92L325.34 7.44L325.10 7.25L324.86 7.06L324.62 6.86L324.48 6.72L324.29 6.58L324.10 6.29L323.86 5.90L323.62 5.47L322.90 3.60L322.61 1.25L322.70-1.63L323.18-5.09L323.33-5.90L323.42-6.86L323.52-7.82L323.57-8.69L323.62-9.89L323.76-10.70L323.95-11.18L324.24-11.57L324.72-11.81L325.30-11.86L325.87-11.76L326.35-11.47L326.69-10.99L326.78-10.37L326.74-9.55L326.50-8.45L325.92-5.86L325.44-2.78L325.10 0.05L325.06 1.97L325.39 3.26L326.06 4.51L326.98 5.62L328.08 6.38L329.18 6.82L330.48 7.15L332.06 7.30L334.13 7.34L336.24 7.30L337.97 7.10L339.65 6.77L341.52 6.14L342.34 5.86L343.15 5.62L343.82 5.38L344.35 5.23L344.88 5.09L345.22 5.04L345.46 5.09L345.70 5.23L345.98 5.52L346.18 5.86L346.18 6.19L346.03 6.58L345.60 6.91L344.59 7.30L343.06 7.73L340.99 8.21L340.08 8.40L339.22 8.59L338.50 8.78L338.02 8.88L336.43 9.12L333.98 9.22L331.44 9.22L329.52 9.07" fill="#0560bd" stroke="none" stroke-width="none" transform="translate(-189.81500244140625,13.047031685965411)" style="fill: rgb(236, 147, 50);"></path></g><g class="path" style="transform: translate(0px, 0px); transform-origin: 127.535px 10.047px; animation: 1s linear -0.106071s infinite normal forwards running bounceAlt-2845b61c-e689-440c-a36b-097acbeee683;"><path d="M315.46 2.06L315.36 1.97L315.22 1.87L315.12 1.78L315.02 1.63L314.78 1.15L314.78 0.48L315.12-0.62L315.74-2.54L316.18-3.98L316.51-5.04L316.70-5.81L316.75-6.19L316.75-6.96L317.04-7.58L317.57-8.02L318.34-8.21L319.30-7.92L319.87-7.20L319.92-6.29L319.34-5.38L318.82-4.46L318.24-3.07L317.86-1.49L317.66-0.05L317.66 0.38L317.62 0.77L317.57 1.15L317.52 1.39L317.18 1.87L316.66 2.16L316.03 2.21L315.46 2.06" fill="#0560bd" stroke="none" stroke-width="none" transform="translate(-189.81500244140625,13.047031685965411)" style="fill: rgb(62, 132, 16);"></path></g><g class="path" style="transform: translate(0px, 0px); transform-origin: 130.465px 1.69203px; animation: 1s linear -0.0942857s infinite normal forwards running bounceAlt-2845b61c-e689-440c-a36b-097acbeee683;"><path d="M297.60-1.78L297.22-2.30L297.07-2.83L297.22-3.36L297.60-3.94L297.84-4.13L298.08-4.32L298.32-4.42L298.46-4.46L298.80-4.61L299.47-5.04L300.34-5.66L301.39-6.43L302.54-7.25L303.70-8.11L304.75-8.88L305.52-9.46L306.19-9.89L306.82-10.37L307.39-10.75L307.82-11.04L308.78-11.66L310.27-12.43L311.71-13.15L312.43-13.49L312.62-13.54L313.06-13.73L313.73-14.06L314.50-14.40L316.13-15.07L317.95-15.74L319.92-16.42L321.98-16.99L322.46-17.14L322.99-17.28L323.47-17.42L323.86-17.52L324.29-17.66L324.86-17.81L325.54-18.05L326.16-18.29L328.51-19.01L331.49-19.73L334.85-20.45L338.40-21.02L340.70-21.36L342-21.46L342.72-21.31L343.10-21.02L343.34-20.69L343.49-20.30L343.44-19.92L343.34-19.54L343.06-19.15L342.62-18.91L341.95-18.86L340.94-18.96L338.40-19.10L335.86-18.91L333.07-18.29L329.90-17.28L329.18-17.04L328.37-16.75L327.65-16.56L327.07-16.37L325.06-15.79L322.46-14.98L320.06-14.11L318.62-13.54L318.24-13.34L317.71-13.15L317.18-12.91L316.66-12.72L314.78-12L312.96-11.18L311.38-10.42L310.32-9.79L309.84-9.46L309.31-9.12L308.78-8.74L308.26-8.45L306.77-7.49L304.80-6.10L302.93-4.70L301.68-3.65L301.15-3.12L300.77-2.74L300.43-2.40L300-1.87L299.76-1.63L299.52-1.49L299.23-1.34L298.90-1.30L298.46-1.25L298.18-1.30L297.94-1.49L297.60-1.78" fill="#0560bd" stroke="none" stroke-width="none" transform="translate(-189.81500244140625,13.047031685965411)" style="fill: rgb(5, 96, 189);"></path></g><g class="path" style="transform: translate(0px, 0px); transform-origin: 133.535px -14.433px; animation: 1s linear -0.0825s infinite normal forwards running bounceAlt-2845b61c-e689-440c-a36b-097acbeee683;"><path d="M321.84-18.67L321.46-19.01L321.22-19.54L321.12-20.30L321.12-21.31L321.31-24.10L321.55-26.50L321.89-28.66L322.22-30.72L322.42-31.78L322.51-32.54L322.51-33.17L322.46-33.74L322.42-34.61L322.42-35.18L322.61-35.57L322.90-35.95L323.18-36.19L323.42-36.34L323.66-36.38L324-36.43L324.48-36.38L324.86-36.19L325.20-35.90L325.49-35.47L325.58-34.75L325.49-33.41L325.30-31.73L325.01-30L324.72-28.27L324.43-25.82L324.14-23.14L323.95-20.83L323.90-19.92L323.81-19.44L323.66-19.10L323.47-18.86L323.09-18.67L322.70-18.53L322.27-18.58L321.84-18.67" fill="#0560bd" stroke="none" stroke-width="none" transform="translate(-189.81500244140625,13.047031685965411)" style="fill: rgb(196, 65, 41);"></path></g><g class="path" style="transform: translate(0px, 0px); transform-origin: 123.435px -8.89297px; animation: 1s linear -0.0707143s infinite normal forwards running bounceAlt-2845b61c-e689-440c-a36b-097acbeee683;"><path d="M313.15-19.06L312.67-19.34L312.24-19.87L312-20.64L311.90-21.55L311.86-21.84L311.86-22.13L311.81-22.32L311.71-22.46L311.57-22.75L311.57-23.28L311.62-23.81L311.81-24.24L312.34-24.67L313.10-24.82L313.87-24.67L314.50-24.19L314.69-23.86L314.78-23.52L314.74-23.04L314.59-22.42L314.54-22.03L314.50-21.74L314.54-21.50L314.69-21.17L314.88-20.69L314.93-20.26L314.83-19.87L314.59-19.54L314.30-19.30L313.97-19.10L313.58-19.06L313.15-19.06" fill="#0560bd" stroke="none" stroke-width="none" transform="translate(-189.81500244140625,13.047031685965411)" style="fill: rgb(236, 147, 50);"></path></g><g class="path" style="transform: translate(0px, 0px); transform-origin: 142.225px -14.793px; animation: 1s linear -0.0589286s infinite normal forwards running bounceAlt-2845b61c-e689-440c-a36b-097acbeee683;"><path d="M327.84-22.99L327.46-23.52L327.55-24.10L328.18-25.01L329.47-26.45L330.53-27.70L331.68-29.28L332.74-30.86L333.46-32.06L333.74-32.45L334.13-32.74L334.61-32.93L335.09-33.02L335.62-32.88L336.10-32.50L336.48-31.97L336.62-31.39L336.58-31.06L336.48-30.77L336.19-30.43L335.71-29.95L335.28-29.52L334.75-28.99L334.22-28.42L333.70-27.84L332.64-26.59L331.39-25.20L330.29-24L329.47-23.14L329.04-22.80L328.61-22.66L328.22-22.70L327.84-22.99" fill="#0560bd" stroke="none" stroke-width="none" transform="translate(-189.81500244140625,13.047031685965411)" style="fill: rgb(62, 132, 16);"></path></g><g class="path" style="transform: translate(0px, 0px); transform-origin: 185.88px 0.232033px; animation: 1s linear -0.0471429s infinite normal forwards running bounceAlt-2845b61c-e689-440c-a36b-097acbeee683;"><path d="M370.61 13.49L370.03 13.06L369.89 12.24L370.08 10.56L370.70 7.68L371.04 6.14L371.38 4.46L371.71 2.50L372.10 0.14L372.24-0.67L372.38-1.44L372.48-2.11L372.62-2.59L372.72-3.17L372.86-3.98L373.06-4.99L373.25-6.10L373.58-8.50L373.87-10.27L374.11-11.57L374.35-12.72L374.50-13.30L374.59-13.92L374.69-14.50L374.74-14.98L374.93-16.27L375.31-18L375.74-19.82L376.13-21.31L376.32-21.89L376.46-22.66L376.61-23.52L376.75-24.34L376.85-25.15L376.99-26.16L377.09-27.17L377.18-28.03L377.28-28.85L377.38-29.71L377.42-30.53L377.42-31.20L377.47-32.16L377.57-32.98L377.71-33.84L377.95-34.75L378.05-35.23L378.14-35.81L378.24-36.43L378.24-37.01L378.34-37.87L378.48-38.45L378.77-38.78L379.20-39.12L380.06-39.26L380.88-38.98L381.41-38.35L381.50-37.49L381.41-37.20L381.26-36.72L381.07-36.14L380.88-35.52L380.50-34.22L380.21-32.74L380.02-30.96L379.87-28.61L379.73-26.83L379.54-25.39L379.25-24.10L378.86-22.80L378.72-22.32L378.62-21.84L378.53-21.46L378.48-21.12L378.48-20.83L378.38-20.40L378.29-19.92L378.19-19.39L378.05-18.82L377.90-18.14L377.81-17.52L377.71-16.94L377.62-15.94L377.38-14.64L377.09-12.91L376.66-10.56L376.51-9.89L376.42-9.22L376.32-8.64L376.27-8.21L376.18-7.73L376.08-7.01L375.94-6.14L375.74-5.23L375.55-4.32L375.41-3.41L375.26-2.64L375.22-2.11L375.17-1.63L375.07-1.01L374.93-0.34L374.83 0.29L374.69 0.91L374.59 1.49L374.54 2.02L374.54 2.30L374.50 2.64L374.40 3.12L374.30 3.70L374.11 4.27L373.92 4.99L373.73 5.95L373.49 7.01L373.30 8.06L373.10 9.07L372.91 10.08L372.72 10.99L372.62 11.66L372.29 12.72L371.86 13.34L371.28 13.63L370.61 13.49" fill="#0560bd" stroke="none" stroke-width="none" transform="translate(-189.81500244140625,13.047031685965411)" style="fill: rgb(5, 96, 189);"></path></g><g class="path" style="transform: translate(0px, 0px); transform-origin: 202.75px 8.56203px; animation: 1s linear -0.0353571s infinite normal forwards running bounceAlt-2845b61c-e689-440c-a36b-097acbeee683;"><path d="M388.75 2.40L387.98 1.68L387.84 0.72L388.27-0.10L389.28-0.58L390.19-0.77L391.34-1.15L392.40-1.54L392.83-1.73L392.83-1.78L392.78-1.82L392.78-1.87L392.69-1.92L392.64-2.21L392.64-2.83L392.64-3.74L392.64-4.90L392.69-6.19L392.69-7.10L392.64-7.68L392.54-7.87L392.35-7.92L391.97-7.73L391.30-7.25L390.29-6.48L389.23-5.57L388.22-4.56L387.36-3.46L386.64-2.30L386.21-1.58L385.82-1.15L385.39-0.96L384.77-0.91L384-1.10L383.47-1.58L383.23-2.30L383.38-3.17L383.52-3.79L383.66-4.85L383.81-6.10L383.90-7.39L383.95-8.02L384-8.50L384.10-8.88L384.24-9.12L384.58-9.41L385.01-9.65L385.49-9.70L386.02-9.65L386.64-9.26L387.02-8.64L387.17-7.92L386.98-7.30L386.88-7.10L386.78-6.91L386.74-6.67L386.64-6.48L386.54-5.95L387.50-6.77L387.98-7.15L388.46-7.58L388.94-8.02L389.42-8.40L390.38-9.17L391.68-9.89L393.12-10.56L394.66-11.14L395.57-11.42L396.29-11.57L396.96-11.66L397.82-11.66L399.17-11.66L400.03-11.52L400.66-11.14L401.09-10.51L401.47-9.74L401.66-9.07L401.57-8.45L401.18-7.63L400.90-7.10L400.51-6.43L400.03-5.76L399.60-5.18L399.17-4.61L398.83-4.18L398.59-3.84L398.50-3.70L398.50-3.60L398.64-3.55L398.98-3.60L399.60-3.70L399.98-3.74L400.37-3.79L400.70-3.79L400.94-3.74L401.38-3.55L401.71-3.22L401.90-2.78L401.90-2.40L401.71-2.06L401.38-1.73L400.94-1.49L400.46-1.34L399.26-1.06L397.92-0.67L396.62-0.19L395.62 0.29L395.04 0.58L394.27 0.91L393.46 1.25L392.64 1.49L391.87 1.78L391.15 2.02L390.53 2.26L390.14 2.40L389.66 2.59L389.38 2.69L389.14 2.64L388.75 2.40zM395.42-2.64L395.81-3.07L396.53-4.08L397.34-5.38L398.02-6.48L398.50-7.49L398.74-8.40L398.83-9.12L398.64-9.50L398.16-9.60L397.39-9.65L396.53-9.65L395.95-9.55L395.76-9.50L395.66-9.36L395.62-9.22L395.62-8.93L395.57-8.69L395.52-8.40L395.47-8.16L395.38-7.92L395.28-7.63L395.18-7.10L395.14-6.48L395.09-5.86L395.04-5.14L394.99-4.46L394.94-3.79L394.90-3.31L394.85-2.83L394.85-2.59L394.90-2.50L395.04-2.54L395.14-2.59L395.28-2.59L395.38-2.64L395.42-2.64" fill="#0560bd" stroke="none" stroke-width="none" transform="translate(-189.81500244140625,13.047031685965411)" style="fill: rgb(196, 65, 41);"></path></g><g class="path" style="transform: translate(0px, 0px); transform-origin: 178.37px -0.607968px; animation: 1s linear -0.0235714s infinite normal forwards running bounceAlt-2845b61c-e689-440c-a36b-097acbeee683;"><path d="M367.87-7.78L367.68-7.87L367.49-8.02L367.20-8.21L366.96-8.45L366.34-9.07L366.24-12.62L366.19-14.06L366.14-15.46L366.10-16.56L366.05-17.28L366.05-18.14L366.19-18.77L366.48-19.20L366.96-19.54L367.92-19.63L368.69-19.25L369.17-18.53L369.17-17.57L369.12-17.38L369.02-17.18L368.98-17.04L368.88-16.94L368.69-16.18L368.50-14.74L368.45-13.20L368.45-11.95L368.59-10.90L369.12-10.90L369.46-10.80L369.79-10.61L370.08-10.32L370.32-9.94L370.27-9.41L369.98-8.83L369.46-8.30L368.78-7.87L368.59-7.82L368.40-7.73L368.30-7.68L368.21-7.68L368.21-7.73L368.11-7.73L368.02-7.73L367.87-7.78" fill="#0560bd" stroke="none" stroke-width="none" transform="translate(-189.81500244140625,13.047031685965411)" style="fill: rgb(236, 147, 50);"></path></g><g class="path" style="transform: translate(0px, 0px); transform-origin: 202.755px -2.50297px; animation: 1s linear -0.0117857s infinite normal forwards running bounceAlt-2845b61c-e689-440c-a36b-097acbeee683;"><path d="M389.42-13.82L389.04-14.30L388.90-14.78L388.90-15.26L389.09-15.74L390-16.37L391.49-17.04L393.22-17.52L394.70-17.76L395.23-17.71L395.62-17.57L395.90-17.28L396.14-16.90L396.24-16.18L395.95-15.55L395.33-15.17L394.37-14.98L393.65-14.93L392.98-14.69L392.30-14.35L391.82-13.92L391.58-13.68L391.34-13.54L391.06-13.44L390.67-13.34L390.24-13.34L390-13.39L389.71-13.54L389.42-13.82" fill="#0560bd" stroke="none" stroke-width="none" transform="translate(-189.81500244140625,13.047031685965411)" style="fill: rgb(62, 132, 16);"></path></g><g class="path" style="transform: translate(0px, 0px); transform-origin: 202.85px -10.163px; animation: 1s linear 0s infinite normal forwards running bounceAlt-2845b61c-e689-440c-a36b-097acbeee683;"><path d="M386.26-17.09L385.73-17.33L385.30-17.57L385.01-17.86L384.82-18.14L384.72-18.43L384.72-18.82L384.91-19.39L385.20-20.30L385.92-22.42L386.50-24.53L386.88-26.30L386.98-27.36L386.93-27.65L386.93-27.98L386.98-28.27L387.02-28.46L387.46-29.04L388.08-29.33L388.85-29.38L389.52-29.14L390-28.61L390.14-27.89L390-27.12L389.57-26.45L389.42-26.30L389.28-26.16L389.23-26.02L389.18-25.92L389.14-25.68L388.99-25.15L388.75-24.43L388.51-23.62L388.22-22.75L387.98-21.94L387.79-21.31L387.70-20.93L387.55-20.35L388.13-20.59L388.51-20.78L389.28-21.22L390.19-21.79L391.20-22.46L393.17-23.71L394.70-24.67L395.95-25.30L397.06-25.78L397.68-25.97L398.11-26.06L398.54-26.06L399.02-25.97L399.84-25.78L400.32-25.49L400.56-24.96L400.61-24.14L400.56-23.18L400.27-22.42L399.89-21.74L399.41-21.31L399.12-21.22L398.93-21.17L398.74-21.22L398.40-21.36L398.02-21.60L397.82-21.98L397.78-22.46L397.87-23.04L397.97-23.23L398.02-23.42L398.02-23.57L398.02-23.62L397.63-23.62L396.96-23.42L396.14-23.14L395.38-22.85L394.42-22.27L393.26-21.50L391.97-20.54L390.62-19.49L388.99-18.14L387.79-17.33L386.98-17.04L386.26-17.09" fill="#0560bd" stroke="none" stroke-width="none" transform="translate(-189.81500244140625,13.047031685965411)" style="fill: rgb(5, 96, 189);"></path></g></g>
  </g>
  <g filter="url(#firework)">
  <g transform="translate(-97.79540534409126,-6.005946112322818) scale(0.7934617807219141)"><g class="ld-explode" style="animation-delay:-0.7s"><g style="transform:rotate(0deg);transform-origin:0px 0px">
  <path class="ld-pop" d="M30 0l7 0" stroke-width="3" stroke-linecap="round" stroke="#ec9332" style="animation-delay:-0.7s"></path>
</g><g style="transform:rotate(22.5deg);transform-origin:0px 0px">
  <path class="ld-pop" d="M30 0l3 0" stroke-width="3" stroke-linecap="round" stroke="#ec9332" style="animation-delay:-0.7s"></path>
</g><g style="transform:rotate(45deg);transform-origin:0px 0px">
  <path class="ld-pop" d="M30 0l7 0" stroke-width="3" stroke-linecap="round" stroke="#ec9332" style="animation-delay:-0.7s"></path>
</g><g style="transform:rotate(67.5deg);transform-origin:0px 0px">
  <path class="ld-pop" d="M30 0l3 0" stroke-width="3" stroke-linecap="round" stroke="#ec9332" style="animation-delay:-0.7s"></path>
</g><g style="transform:rotate(90deg);transform-origin:0px 0px">
  <path class="ld-pop" d="M30 0l7 0" stroke-width="3" stroke-linecap="round" stroke="#ec9332" style="animation-delay:-0.7s"></path>
</g><g style="transform:rotate(112.5deg);transform-origin:0px 0px">
  <path class="ld-pop" d="M30 0l3 0" stroke-width="3" stroke-linecap="round" stroke="#ec9332" style="animation-delay:-0.7s"></path>
</g><g style="transform:rotate(135deg);transform-origin:0px 0px">
  <path class="ld-pop" d="M30 0l7 0" stroke-width="3" stroke-linecap="round" stroke="#ec9332" style="animation-delay:-0.7s"></path>
</g><g style="transform:rotate(157.5deg);transform-origin:0px 0px">
  <path class="ld-pop" d="M30 0l3 0" stroke-width="3" stroke-linecap="round" stroke="#ec9332" style="animation-delay:-0.7s"></path>
</g><g style="transform:rotate(180deg);transform-origin:0px 0px">
  <path class="ld-pop" d="M30 0l7 0" stroke-width="3" stroke-linecap="round" stroke="#ec9332" style="animation-delay:-0.7s"></path>
</g><g style="transform:rotate(202.5deg);transform-origin:0px 0px">
  <path class="ld-pop" d="M30 0l3 0" stroke-width="3" stroke-linecap="round" stroke="#ec9332" style="animation-delay:-0.7s"></path>
</g><g style="transform:rotate(225deg);transform-origin:0px 0px">
  <path class="ld-pop" d="M30 0l7 0" stroke-width="3" stroke-linecap="round" stroke="#ec9332" style="animation-delay:-0.7s"></path>
</g><g style="transform:rotate(247.5deg);transform-origin:0px 0px">
  <path class="ld-pop" d="M30 0l3 0" stroke-width="3" stroke-linecap="round" stroke="#ec9332" style="animation-delay:-0.7s"></path>
</g><g style="transform:rotate(270deg);transform-origin:0px 0px">
  <path class="ld-pop" d="M30 0l7 0" stroke-width="3" stroke-linecap="round" stroke="#ec9332" style="animation-delay:-0.7s"></path>
</g><g style="transform:rotate(292.5deg);transform-origin:0px 0px">
  <path class="ld-pop" d="M30 0l3 0" stroke-width="3" stroke-linecap="round" stroke="#ec9332" style="animation-delay:-0.7s"></path>
</g><g style="transform:rotate(315deg);transform-origin:0px 0px">
  <path class="ld-pop" d="M30 0l7 0" stroke-width="3" stroke-linecap="round" stroke="#ec9332" style="animation-delay:-0.7s"></path>
</g><g style="transform:rotate(337.5deg);transform-origin:0px 0px">
  <path class="ld-pop" d="M30 0l3 0" stroke-width="3" stroke-linecap="round" stroke="#ec9332" style="animation-delay:-0.7s"></path>
</g></g></g><g transform="translate(-96.88391353841389,23.30985116629779) scale(0.7156768189585034)"><g class="ld-explode" style="animation-delay:-0.8s"><g style="transform:rotate(0deg);transform-origin:0px 0px">
  <path class="ld-pop" d="M30 0l7 0" stroke-width="3" stroke-linecap="round" stroke="#3e8410" style="animation-delay:-0.8s"></path>
</g><g style="transform:rotate(22.5deg);transform-origin:0px 0px">
  <path class="ld-pop" d="M30 0l3 0" stroke-width="3" stroke-linecap="round" stroke="#3e8410" style="animation-delay:-0.8s"></path>
</g><g style="transform:rotate(45deg);transform-origin:0px 0px">
  <path class="ld-pop" d="M30 0l7 0" stroke-width="3" stroke-linecap="round" stroke="#3e8410" style="animation-delay:-0.8s"></path>
</g><g style="transform:rotate(67.5deg);transform-origin:0px 0px">
  <path class="ld-pop" d="M30 0l3 0" stroke-width="3" stroke-linecap="round" stroke="#3e8410" style="animation-delay:-0.8s"></path>
</g><g style="transform:rotate(90deg);transform-origin:0px 0px">
  <path class="ld-pop" d="M30 0l7 0" stroke-width="3" stroke-linecap="round" stroke="#3e8410" style="animation-delay:-0.8s"></path>
</g><g style="transform:rotate(112.5deg);transform-origin:0px 0px">
  <path class="ld-pop" d="M30 0l3 0" stroke-width="3" stroke-linecap="round" stroke="#3e8410" style="animation-delay:-0.8s"></path>
</g><g style="transform:rotate(135deg);transform-origin:0px 0px">
  <path class="ld-pop" d="M30 0l7 0" stroke-width="3" stroke-linecap="round" stroke="#3e8410" style="animation-delay:-0.8s"></path>
</g><g style="transform:rotate(157.5deg);transform-origin:0px 0px">
  <path class="ld-pop" d="M30 0l3 0" stroke-width="3" stroke-linecap="round" stroke="#3e8410" style="animation-delay:-0.8s"></path>
</g><g style="transform:rotate(180deg);transform-origin:0px 0px">
  <path class="ld-pop" d="M30 0l7 0" stroke-width="3" stroke-linecap="round" stroke="#3e8410" style="animation-delay:-0.8s"></path>
</g><g style="transform:rotate(202.5deg);transform-origin:0px 0px">
  <path class="ld-pop" d="M30 0l3 0" stroke-width="3" stroke-linecap="round" stroke="#3e8410" style="animation-delay:-0.8s"></path>
</g><g style="transform:rotate(225deg);transform-origin:0px 0px">
  <path class="ld-pop" d="M30 0l7 0" stroke-width="3" stroke-linecap="round" stroke="#3e8410" style="animation-delay:-0.8s"></path>
</g><g style="transform:rotate(247.5deg);transform-origin:0px 0px">
  <path class="ld-pop" d="M30 0l3 0" stroke-width="3" stroke-linecap="round" stroke="#3e8410" style="animation-delay:-0.8s"></path>
</g><g style="transform:rotate(270deg);transform-origin:0px 0px">
  <path class="ld-pop" d="M30 0l7 0" stroke-width="3" stroke-linecap="round" stroke="#3e8410" style="animation-delay:-0.8s"></path>
</g><g style="transform:rotate(292.5deg);transform-origin:0px 0px">
  <path class="ld-pop" d="M30 0l3 0" stroke-width="3" stroke-linecap="round" stroke="#3e8410" style="animation-delay:-0.8s"></path>
</g><g style="transform:rotate(315deg);transform-origin:0px 0px">
  <path class="ld-pop" d="M30 0l7 0" stroke-width="3" stroke-linecap="round" stroke="#3e8410" style="animation-delay:-0.8s"></path>
</g><g style="transform:rotate(337.5deg);transform-origin:0px 0px">
  <path class="ld-pop" d="M30 0l3 0" stroke-width="3" stroke-linecap="round" stroke="#3e8410" style="animation-delay:-0.8s"></path>
</g></g></g><g transform="translate(215.44325622169782,2.9068580728566755) scale(0.6296248564755184)"><g class="ld-explode" style="animation-delay:-0.9s"><g style="transform:rotate(0deg);transform-origin:0px 0px">
  <path class="ld-pop" d="M30 0l7 0" stroke-width="3" stroke-linecap="round" stroke="#c44129" style="animation-delay:-0.9s"></path>
</g><g style="transform:rotate(22.5deg);transform-origin:0px 0px">
  <path class="ld-pop" d="M30 0l3 0" stroke-width="3" stroke-linecap="round" stroke="#c44129" style="animation-delay:-0.9s"></path>
</g><g style="transform:rotate(45deg);transform-origin:0px 0px">
  <path class="ld-pop" d="M30 0l7 0" stroke-width="3" stroke-linecap="round" stroke="#c44129" style="animation-delay:-0.9s"></path>
</g><g style="transform:rotate(67.5deg);transform-origin:0px 0px">
  <path class="ld-pop" d="M30 0l3 0" stroke-width="3" stroke-linecap="round" stroke="#c44129" style="animation-delay:-0.9s"></path>
</g><g style="transform:rotate(90deg);transform-origin:0px 0px">
  <path class="ld-pop" d="M30 0l7 0" stroke-width="3" stroke-linecap="round" stroke="#c44129" style="animation-delay:-0.9s"></path>
</g><g style="transform:rotate(112.5deg);transform-origin:0px 0px">
  <path class="ld-pop" d="M30 0l3 0" stroke-width="3" stroke-linecap="round" stroke="#c44129" style="animation-delay:-0.9s"></path>
</g><g style="transform:rotate(135deg);transform-origin:0px 0px">
  <path class="ld-pop" d="M30 0l7 0" stroke-width="3" stroke-linecap="round" stroke="#c44129" style="animation-delay:-0.9s"></path>
</g><g style="transform:rotate(157.5deg);transform-origin:0px 0px">
  <path class="ld-pop" d="M30 0l3 0" stroke-width="3" stroke-linecap="round" stroke="#c44129" style="animation-delay:-0.9s"></path>
</g><g style="transform:rotate(180deg);transform-origin:0px 0px">
  <path class="ld-pop" d="M30 0l7 0" stroke-width="3" stroke-linecap="round" stroke="#c44129" style="animation-delay:-0.9s"></path>
</g><g style="transform:rotate(202.5deg);transform-origin:0px 0px">
  <path class="ld-pop" d="M30 0l3 0" stroke-width="3" stroke-linecap="round" stroke="#c44129" style="animation-delay:-0.9s"></path>
</g><g style="transform:rotate(225deg);transform-origin:0px 0px">
  <path class="ld-pop" d="M30 0l7 0" stroke-width="3" stroke-linecap="round" stroke="#c44129" style="animation-delay:-0.9s"></path>
</g><g style="transform:rotate(247.5deg);transform-origin:0px 0px">
  <path class="ld-pop" d="M30 0l3 0" stroke-width="3" stroke-linecap="round" stroke="#c44129" style="animation-delay:-0.9s"></path>
</g><g style="transform:rotate(270deg);transform-origin:0px 0px">
  <path class="ld-pop" d="M30 0l7 0" stroke-width="3" stroke-linecap="round" stroke="#c44129" style="animation-delay:-0.9s"></path>
</g><g style="transform:rotate(292.5deg);transform-origin:0px 0px">
  <path class="ld-pop" d="M30 0l3 0" stroke-width="3" stroke-linecap="round" stroke="#c44129" style="animation-delay:-0.9s"></path>
</g><g style="transform:rotate(315deg);transform-origin:0px 0px">
  <path class="ld-pop" d="M30 0l7 0" stroke-width="3" stroke-linecap="round" stroke="#c44129" style="animation-delay:-0.9s"></path>
</g><g style="transform:rotate(337.5deg);transform-origin:0px 0px">
  <path class="ld-pop" d="M30 0l3 0" stroke-width="3" stroke-linecap="round" stroke="#c44129" style="animation-delay:-0.9s"></path>
</g></g></g>
  </g>
</g>

</g>
</svg>