<svg xmlns="http://www.w3.org/2000/svg" style="margin:auto;background:rgba(0, 0, 0, 0);display:block;" width="563" height="183" preserveAspectRatio="xMidYMid">
<style type="text/css">
  text {
    text-anchor: middle; font-size: 52px; opacity: 0;
  }
</style>
<g style="transform-origin: 281.5px 91.5px; transform: scale(1.52941);">
<style type="text/css">

  @keyframes ld-explode {
    0% { transform: scale(0) }
    100% { transform: scale(1) }
  }

  .ld-explode {
    animation: ld-explode 1s ease-out infinite;
    transform-origin: 0px 0px;
  }

  @keyframes ld-pop {
    0% { transform: scale(0) }
    50% { transform: scale(1) }
    100% { transform: scale(0) }
  }

  .ld-pop {
    transform: scale(0);
    transform-origin: 40px 0px;
    animation: ld-pop 1s ease-out infinite;
  }

</style>
<defs>
<filter id="blur1">
  <feGaussianBlur stdDeviation="2"></feGaussianBlur>
</filter>
<filter id="firework">
  <feGaussianBlur stdDeviation="2" result="blur"></feGaussianBlur>
  <feMerge>
    <feMergeNode in="blur"></feMergeNode>
    <feMergeNode in="SourceGraphic"></feMergeNode>
  </feMerge>
</filter>
</defs>
<g transform="translate(281.5,91.5)">
  <g filter="url(#firework)">
  <g transform="translate(46.6457207652763,41.22656180410952) scale(0.8594971252662227)"><g class="ld-explode" style="animation-delay:0s"><g style="transform:rotate(0deg);transform-origin:0px 0px">
  <path class="ld-pop" d="M30 0l7 0" stroke-width="3" stroke-linecap="round" stroke="#c44129" style="animation-delay:0s"></path>
</g><g style="transform:rotate(22.5deg);transform-origin:0px 0px">
  <path class="ld-pop" d="M30 0l3 0" stroke-width="3" stroke-linecap="round" stroke="#c44129" style="animation-delay:0s"></path>
</g><g style="transform:rotate(45deg);transform-origin:0px 0px">
  <path class="ld-pop" d="M30 0l7 0" stroke-width="3" stroke-linecap="round" stroke="#c44129" style="animation-delay:0s"></path>
</g><g style="transform:rotate(67.5deg);transform-origin:0px 0px">
  <path class="ld-pop" d="M30 0l3 0" stroke-width="3" stroke-linecap="round" stroke="#c44129" style="animation-delay:0s"></path>
</g><g style="transform:rotate(90deg);transform-origin:0px 0px">
  <path class="ld-pop" d="M30 0l7 0" stroke-width="3" stroke-linecap="round" stroke="#c44129" style="animation-delay:0s"></path>
</g><g style="transform:rotate(112.5deg);transform-origin:0px 0px">
  <path class="ld-pop" d="M30 0l3 0" stroke-width="3" stroke-linecap="round" stroke="#c44129" style="animation-delay:0s"></path>
</g><g style="transform:rotate(135deg);transform-origin:0px 0px">
  <path class="ld-pop" d="M30 0l7 0" stroke-width="3" stroke-linecap="round" stroke="#c44129" style="animation-delay:0s"></path>
</g><g style="transform:rotate(157.5deg);transform-origin:0px 0px">
  <path class="ld-pop" d="M30 0l3 0" stroke-width="3" stroke-linecap="round" stroke="#c44129" style="animation-delay:0s"></path>
</g><g style="transform:rotate(180deg);transform-origin:0px 0px">
  <path class="ld-pop" d="M30 0l7 0" stroke-width="3" stroke-linecap="round" stroke="#c44129" style="animation-delay:0s"></path>
</g><g style="transform:rotate(202.5deg);transform-origin:0px 0px">
  <path class="ld-pop" d="M30 0l3 0" stroke-width="3" stroke-linecap="round" stroke="#c44129" style="animation-delay:0s"></path>
</g><g style="transform:rotate(225deg);transform-origin:0px 0px">
  <path class="ld-pop" d="M30 0l7 0" stroke-width="3" stroke-linecap="round" stroke="#c44129" style="animation-delay:0s"></path>
</g><g style="transform:rotate(247.5deg);transform-origin:0px 0px">
  <path class="ld-pop" d="M30 0l3 0" stroke-width="3" stroke-linecap="round" stroke="#c44129" style="animation-delay:0s"></path>
</g><g style="transform:rotate(270deg);transform-origin:0px 0px">
  <path class="ld-pop" d="M30 0l7 0" stroke-width="3" stroke-linecap="round" stroke="#c44129" style="animation-delay:0s"></path>
</g><g style="transform:rotate(292.5deg);transform-origin:0px 0px">
  <path class="ld-pop" d="M30 0l3 0" stroke-width="3" stroke-linecap="round" stroke="#c44129" style="animation-delay:0s"></path>
</g><g style="transform:rotate(315deg);transform-origin:0px 0px">
  <path class="ld-pop" d="M30 0l7 0" stroke-width="3" stroke-linecap="round" stroke="#c44129" style="animation-delay:0s"></path>
</g><g style="transform:rotate(337.5deg);transform-origin:0px 0px">
  <path class="ld-pop" d="M30 0l3 0" stroke-width="3" stroke-linecap="round" stroke="#c44129" style="animation-delay:0s"></path>
</g></g></g><g transform="translate(-11.395511594186523,-21.79715434720765) scale(0.5712128321712266)"><g class="ld-explode" style="animation-delay:-0.1s"><g style="transform:rotate(0deg);transform-origin:0px 0px">
  <path class="ld-pop" d="M30 0l7 0" stroke-width="3" stroke-linecap="round" stroke="#ec9332" style="animation-delay:-0.1s"></path>
</g><g style="transform:rotate(22.5deg);transform-origin:0px 0px">
  <path class="ld-pop" d="M30 0l3 0" stroke-width="3" stroke-linecap="round" stroke="#ec9332" style="animation-delay:-0.1s"></path>
</g><g style="transform:rotate(45deg);transform-origin:0px 0px">
  <path class="ld-pop" d="M30 0l7 0" stroke-width="3" stroke-linecap="round" stroke="#ec9332" style="animation-delay:-0.1s"></path>
</g><g style="transform:rotate(67.5deg);transform-origin:0px 0px">
  <path class="ld-pop" d="M30 0l3 0" stroke-width="3" stroke-linecap="round" stroke="#ec9332" style="animation-delay:-0.1s"></path>
</g><g style="transform:rotate(90deg);transform-origin:0px 0px">
  <path class="ld-pop" d="M30 0l7 0" stroke-width="3" stroke-linecap="round" stroke="#ec9332" style="animation-delay:-0.1s"></path>
</g><g style="transform:rotate(112.5deg);transform-origin:0px 0px">
  <path class="ld-pop" d="M30 0l3 0" stroke-width="3" stroke-linecap="round" stroke="#ec9332" style="animation-delay:-0.1s"></path>
</g><g style="transform:rotate(135deg);transform-origin:0px 0px">
  <path class="ld-pop" d="M30 0l7 0" stroke-width="3" stroke-linecap="round" stroke="#ec9332" style="animation-delay:-0.1s"></path>
</g><g style="transform:rotate(157.5deg);transform-origin:0px 0px">
  <path class="ld-pop" d="M30 0l3 0" stroke-width="3" stroke-linecap="round" stroke="#ec9332" style="animation-delay:-0.1s"></path>
</g><g style="transform:rotate(180deg);transform-origin:0px 0px">
  <path class="ld-pop" d="M30 0l7 0" stroke-width="3" stroke-linecap="round" stroke="#ec9332" style="animation-delay:-0.1s"></path>
</g><g style="transform:rotate(202.5deg);transform-origin:0px 0px">
  <path class="ld-pop" d="M30 0l3 0" stroke-width="3" stroke-linecap="round" stroke="#ec9332" style="animation-delay:-0.1s"></path>
</g><g style="transform:rotate(225deg);transform-origin:0px 0px">
  <path class="ld-pop" d="M30 0l7 0" stroke-width="3" stroke-linecap="round" stroke="#ec9332" style="animation-delay:-0.1s"></path>
</g><g style="transform:rotate(247.5deg);transform-origin:0px 0px">
  <path class="ld-pop" d="M30 0l3 0" stroke-width="3" stroke-linecap="round" stroke="#ec9332" style="animation-delay:-0.1s"></path>
</g><g style="transform:rotate(270deg);transform-origin:0px 0px">
  <path class="ld-pop" d="M30 0l7 0" stroke-width="3" stroke-linecap="round" stroke="#ec9332" style="animation-delay:-0.1s"></path>
</g><g style="transform:rotate(292.5deg);transform-origin:0px 0px">
  <path class="ld-pop" d="M30 0l3 0" stroke-width="3" stroke-linecap="round" stroke="#ec9332" style="animation-delay:-0.1s"></path>
</g><g style="transform:rotate(315deg);transform-origin:0px 0px">
  <path class="ld-pop" d="M30 0l7 0" stroke-width="3" stroke-linecap="round" stroke="#ec9332" style="animation-delay:-0.1s"></path>
</g><g style="transform:rotate(337.5deg);transform-origin:0px 0px">
  <path class="ld-pop" d="M30 0l3 0" stroke-width="3" stroke-linecap="round" stroke="#ec9332" style="animation-delay:-0.1s"></path>
</g></g></g><g transform="translate(120.45563255669121,-0.059564532844284986) scale(0.5298179692001437)"><g class="ld-explode" style="animation-delay:-0.2s"><g style="transform:rotate(0deg);transform-origin:0px 0px">
  <path class="ld-pop" d="M30 0l7 0" stroke-width="3" stroke-linecap="round" stroke="#3e8410" style="animation-delay:-0.2s"></path>
</g><g style="transform:rotate(22.5deg);transform-origin:0px 0px">
  <path class="ld-pop" d="M30 0l3 0" stroke-width="3" stroke-linecap="round" stroke="#3e8410" style="animation-delay:-0.2s"></path>
</g><g style="transform:rotate(45deg);transform-origin:0px 0px">
  <path class="ld-pop" d="M30 0l7 0" stroke-width="3" stroke-linecap="round" stroke="#3e8410" style="animation-delay:-0.2s"></path>
</g><g style="transform:rotate(67.5deg);transform-origin:0px 0px">
  <path class="ld-pop" d="M30 0l3 0" stroke-width="3" stroke-linecap="round" stroke="#3e8410" style="animation-delay:-0.2s"></path>
</g><g style="transform:rotate(90deg);transform-origin:0px 0px">
  <path class="ld-pop" d="M30 0l7 0" stroke-width="3" stroke-linecap="round" stroke="#3e8410" style="animation-delay:-0.2s"></path>
</g><g style="transform:rotate(112.5deg);transform-origin:0px 0px">
  <path class="ld-pop" d="M30 0l3 0" stroke-width="3" stroke-linecap="round" stroke="#3e8410" style="animation-delay:-0.2s"></path>
</g><g style="transform:rotate(135deg);transform-origin:0px 0px">
  <path class="ld-pop" d="M30 0l7 0" stroke-width="3" stroke-linecap="round" stroke="#3e8410" style="animation-delay:-0.2s"></path>
</g><g style="transform:rotate(157.5deg);transform-origin:0px 0px">
  <path class="ld-pop" d="M30 0l3 0" stroke-width="3" stroke-linecap="round" stroke="#3e8410" style="animation-delay:-0.2s"></path>
</g><g style="transform:rotate(180deg);transform-origin:0px 0px">
  <path class="ld-pop" d="M30 0l7 0" stroke-width="3" stroke-linecap="round" stroke="#3e8410" style="animation-delay:-0.2s"></path>
</g><g style="transform:rotate(202.5deg);transform-origin:0px 0px">
  <path class="ld-pop" d="M30 0l3 0" stroke-width="3" stroke-linecap="round" stroke="#3e8410" style="animation-delay:-0.2s"></path>
</g><g style="transform:rotate(225deg);transform-origin:0px 0px">
  <path class="ld-pop" d="M30 0l7 0" stroke-width="3" stroke-linecap="round" stroke="#3e8410" style="animation-delay:-0.2s"></path>
</g><g style="transform:rotate(247.5deg);transform-origin:0px 0px">
  <path class="ld-pop" d="M30 0l3 0" stroke-width="3" stroke-linecap="round" stroke="#3e8410" style="animation-delay:-0.2s"></path>
</g><g style="transform:rotate(270deg);transform-origin:0px 0px">
  <path class="ld-pop" d="M30 0l7 0" stroke-width="3" stroke-linecap="round" stroke="#3e8410" style="animation-delay:-0.2s"></path>
</g><g style="transform:rotate(292.5deg);transform-origin:0px 0px">
  <path class="ld-pop" d="M30 0l3 0" stroke-width="3" stroke-linecap="round" stroke="#3e8410" style="animation-delay:-0.2s"></path>
</g><g style="transform:rotate(315deg);transform-origin:0px 0px">
  <path class="ld-pop" d="M30 0l7 0" stroke-width="3" stroke-linecap="round" stroke="#3e8410" style="animation-delay:-0.2s"></path>
</g><g style="transform:rotate(337.5deg);transform-origin:0px 0px">
  <path class="ld-pop" d="M30 0l3 0" stroke-width="3" stroke-linecap="round" stroke="#3e8410" style="animation-delay:-0.2s"></path>
</g></g></g><g transform="translate(-120.74086280942814,16.151385053412355) scale(0.6842139952025448)"><g class="ld-explode" style="animation-delay:-0.3s"><g style="transform:rotate(0deg);transform-origin:0px 0px">
  <path class="ld-pop" d="M30 0l7 0" stroke-width="3" stroke-linecap="round" stroke="#c44129" style="animation-delay:-0.3s"></path>
</g><g style="transform:rotate(22.5deg);transform-origin:0px 0px">
  <path class="ld-pop" d="M30 0l3 0" stroke-width="3" stroke-linecap="round" stroke="#c44129" style="animation-delay:-0.3s"></path>
</g><g style="transform:rotate(45deg);transform-origin:0px 0px">
  <path class="ld-pop" d="M30 0l7 0" stroke-width="3" stroke-linecap="round" stroke="#c44129" style="animation-delay:-0.3s"></path>
</g><g style="transform:rotate(67.5deg);transform-origin:0px 0px">
  <path class="ld-pop" d="M30 0l3 0" stroke-width="3" stroke-linecap="round" stroke="#c44129" style="animation-delay:-0.3s"></path>
</g><g style="transform:rotate(90deg);transform-origin:0px 0px">
  <path class="ld-pop" d="M30 0l7 0" stroke-width="3" stroke-linecap="round" stroke="#c44129" style="animation-delay:-0.3s"></path>
</g><g style="transform:rotate(112.5deg);transform-origin:0px 0px">
  <path class="ld-pop" d="M30 0l3 0" stroke-width="3" stroke-linecap="round" stroke="#c44129" style="animation-delay:-0.3s"></path>
</g><g style="transform:rotate(135deg);transform-origin:0px 0px">
  <path class="ld-pop" d="M30 0l7 0" stroke-width="3" stroke-linecap="round" stroke="#c44129" style="animation-delay:-0.3s"></path>
</g><g style="transform:rotate(157.5deg);transform-origin:0px 0px">
  <path class="ld-pop" d="M30 0l3 0" stroke-width="3" stroke-linecap="round" stroke="#c44129" style="animation-delay:-0.3s"></path>
</g><g style="transform:rotate(180deg);transform-origin:0px 0px">
  <path class="ld-pop" d="M30 0l7 0" stroke-width="3" stroke-linecap="round" stroke="#c44129" style="animation-delay:-0.3s"></path>
</g><g style="transform:rotate(202.5deg);transform-origin:0px 0px">
  <path class="ld-pop" d="M30 0l3 0" stroke-width="3" stroke-linecap="round" stroke="#c44129" style="animation-delay:-0.3s"></path>
</g><g style="transform:rotate(225deg);transform-origin:0px 0px">
  <path class="ld-pop" d="M30 0l7 0" stroke-width="3" stroke-linecap="round" stroke="#c44129" style="animation-delay:-0.3s"></path>
</g><g style="transform:rotate(247.5deg);transform-origin:0px 0px">
  <path class="ld-pop" d="M30 0l3 0" stroke-width="3" stroke-linecap="round" stroke="#c44129" style="animation-delay:-0.3s"></path>
</g><g style="transform:rotate(270deg);transform-origin:0px 0px">
  <path class="ld-pop" d="M30 0l7 0" stroke-width="3" stroke-linecap="round" stroke="#c44129" style="animation-delay:-0.3s"></path>
</g><g style="transform:rotate(292.5deg);transform-origin:0px 0px">
  <path class="ld-pop" d="M30 0l3 0" stroke-width="3" stroke-linecap="round" stroke="#c44129" style="animation-delay:-0.3s"></path>
</g><g style="transform:rotate(315deg);transform-origin:0px 0px">
  <path class="ld-pop" d="M30 0l7 0" stroke-width="3" stroke-linecap="round" stroke="#c44129" style="animation-delay:-0.3s"></path>
</g><g style="transform:rotate(337.5deg);transform-origin:0px 0px">
  <path class="ld-pop" d="M30 0l3 0" stroke-width="3" stroke-linecap="round" stroke="#c44129" style="animation-delay:-0.3s"></path>
</g></g></g><g transform="translate(62.49321554410795,9.156242658122583) scale(0.9754913344364522)"><g class="ld-explode" style="animation-delay:-0.4s"><g style="transform:rotate(0deg);transform-origin:0px 0px">
  <path class="ld-pop" d="M30 0l7 0" stroke-width="3" stroke-linecap="round" stroke="#ec9332" style="animation-delay:-0.4s"></path>
</g><g style="transform:rotate(22.5deg);transform-origin:0px 0px">
  <path class="ld-pop" d="M30 0l3 0" stroke-width="3" stroke-linecap="round" stroke="#ec9332" style="animation-delay:-0.4s"></path>
</g><g style="transform:rotate(45deg);transform-origin:0px 0px">
  <path class="ld-pop" d="M30 0l7 0" stroke-width="3" stroke-linecap="round" stroke="#ec9332" style="animation-delay:-0.4s"></path>
</g><g style="transform:rotate(67.5deg);transform-origin:0px 0px">
  <path class="ld-pop" d="M30 0l3 0" stroke-width="3" stroke-linecap="round" stroke="#ec9332" style="animation-delay:-0.4s"></path>
</g><g style="transform:rotate(90deg);transform-origin:0px 0px">
  <path class="ld-pop" d="M30 0l7 0" stroke-width="3" stroke-linecap="round" stroke="#ec9332" style="animation-delay:-0.4s"></path>
</g><g style="transform:rotate(112.5deg);transform-origin:0px 0px">
  <path class="ld-pop" d="M30 0l3 0" stroke-width="3" stroke-linecap="round" stroke="#ec9332" style="animation-delay:-0.4s"></path>
</g><g style="transform:rotate(135deg);transform-origin:0px 0px">
  <path class="ld-pop" d="M30 0l7 0" stroke-width="3" stroke-linecap="round" stroke="#ec9332" style="animation-delay:-0.4s"></path>
</g><g style="transform:rotate(157.5deg);transform-origin:0px 0px">
  <path class="ld-pop" d="M30 0l3 0" stroke-width="3" stroke-linecap="round" stroke="#ec9332" style="animation-delay:-0.4s"></path>
</g><g style="transform:rotate(180deg);transform-origin:0px 0px">
  <path class="ld-pop" d="M30 0l7 0" stroke-width="3" stroke-linecap="round" stroke="#ec9332" style="animation-delay:-0.4s"></path>
</g><g style="transform:rotate(202.5deg);transform-origin:0px 0px">
  <path class="ld-pop" d="M30 0l3 0" stroke-width="3" stroke-linecap="round" stroke="#ec9332" style="animation-delay:-0.4s"></path>
</g><g style="transform:rotate(225deg);transform-origin:0px 0px">
  <path class="ld-pop" d="M30 0l7 0" stroke-width="3" stroke-linecap="round" stroke="#ec9332" style="animation-delay:-0.4s"></path>
</g><g style="transform:rotate(247.5deg);transform-origin:0px 0px">
  <path class="ld-pop" d="M30 0l3 0" stroke-width="3" stroke-linecap="round" stroke="#ec9332" style="animation-delay:-0.4s"></path>
</g><g style="transform:rotate(270deg);transform-origin:0px 0px">
  <path class="ld-pop" d="M30 0l7 0" stroke-width="3" stroke-linecap="round" stroke="#ec9332" style="animation-delay:-0.4s"></path>
</g><g style="transform:rotate(292.5deg);transform-origin:0px 0px">
  <path class="ld-pop" d="M30 0l3 0" stroke-width="3" stroke-linecap="round" stroke="#ec9332" style="animation-delay:-0.4s"></path>
</g><g style="transform:rotate(315deg);transform-origin:0px 0px">
  <path class="ld-pop" d="M30 0l7 0" stroke-width="3" stroke-linecap="round" stroke="#ec9332" style="animation-delay:-0.4s"></path>
</g><g style="transform:rotate(337.5deg);transform-origin:0px 0px">
  <path class="ld-pop" d="M30 0l3 0" stroke-width="3" stroke-linecap="round" stroke="#ec9332" style="animation-delay:-0.4s"></path>
</g></g></g><g transform="translate(-68.9914033490738,-26.622701006928146) scale(0.8926024897508096)"><g class="ld-explode" style="animation-delay:-0.5s"><g style="transform:rotate(0deg);transform-origin:0px 0px">
  <path class="ld-pop" d="M30 0l7 0" stroke-width="3" stroke-linecap="round" stroke="#3e8410" style="animation-delay:-0.5s"></path>
</g><g style="transform:rotate(22.5deg);transform-origin:0px 0px">
  <path class="ld-pop" d="M30 0l3 0" stroke-width="3" stroke-linecap="round" stroke="#3e8410" style="animation-delay:-0.5s"></path>
</g><g style="transform:rotate(45deg);transform-origin:0px 0px">
  <path class="ld-pop" d="M30 0l7 0" stroke-width="3" stroke-linecap="round" stroke="#3e8410" style="animation-delay:-0.5s"></path>
</g><g style="transform:rotate(67.5deg);transform-origin:0px 0px">
  <path class="ld-pop" d="M30 0l3 0" stroke-width="3" stroke-linecap="round" stroke="#3e8410" style="animation-delay:-0.5s"></path>
</g><g style="transform:rotate(90deg);transform-origin:0px 0px">
  <path class="ld-pop" d="M30 0l7 0" stroke-width="3" stroke-linecap="round" stroke="#3e8410" style="animation-delay:-0.5s"></path>
</g><g style="transform:rotate(112.5deg);transform-origin:0px 0px">
  <path class="ld-pop" d="M30 0l3 0" stroke-width="3" stroke-linecap="round" stroke="#3e8410" style="animation-delay:-0.5s"></path>
</g><g style="transform:rotate(135deg);transform-origin:0px 0px">
  <path class="ld-pop" d="M30 0l7 0" stroke-width="3" stroke-linecap="round" stroke="#3e8410" style="animation-delay:-0.5s"></path>
</g><g style="transform:rotate(157.5deg);transform-origin:0px 0px">
  <path class="ld-pop" d="M30 0l3 0" stroke-width="3" stroke-linecap="round" stroke="#3e8410" style="animation-delay:-0.5s"></path>
</g><g style="transform:rotate(180deg);transform-origin:0px 0px">
  <path class="ld-pop" d="M30 0l7 0" stroke-width="3" stroke-linecap="round" stroke="#3e8410" style="animation-delay:-0.5s"></path>
</g><g style="transform:rotate(202.5deg);transform-origin:0px 0px">
  <path class="ld-pop" d="M30 0l3 0" stroke-width="3" stroke-linecap="round" stroke="#3e8410" style="animation-delay:-0.5s"></path>
</g><g style="transform:rotate(225deg);transform-origin:0px 0px">
  <path class="ld-pop" d="M30 0l7 0" stroke-width="3" stroke-linecap="round" stroke="#3e8410" style="animation-delay:-0.5s"></path>
</g><g style="transform:rotate(247.5deg);transform-origin:0px 0px">
  <path class="ld-pop" d="M30 0l3 0" stroke-width="3" stroke-linecap="round" stroke="#3e8410" style="animation-delay:-0.5s"></path>
</g><g style="transform:rotate(270deg);transform-origin:0px 0px">
  <path class="ld-pop" d="M30 0l7 0" stroke-width="3" stroke-linecap="round" stroke="#3e8410" style="animation-delay:-0.5s"></path>
</g><g style="transform:rotate(292.5deg);transform-origin:0px 0px">
  <path class="ld-pop" d="M30 0l3 0" stroke-width="3" stroke-linecap="round" stroke="#3e8410" style="animation-delay:-0.5s"></path>
</g><g style="transform:rotate(315deg);transform-origin:0px 0px">
  <path class="ld-pop" d="M30 0l7 0" stroke-width="3" stroke-linecap="round" stroke="#3e8410" style="animation-delay:-0.5s"></path>
</g><g style="transform:rotate(337.5deg);transform-origin:0px 0px">
  <path class="ld-pop" d="M30 0l3 0" stroke-width="3" stroke-linecap="round" stroke="#3e8410" style="animation-delay:-0.5s"></path>
</g></g></g><g transform="translate(-74.6766173747159,43.312327557764064) scale(0.7602761542021191)"><g class="ld-explode" style="animation-delay:-0.6s"><g style="transform:rotate(0deg);transform-origin:0px 0px">
  <path class="ld-pop" d="M30 0l7 0" stroke-width="3" stroke-linecap="round" stroke="#c44129" style="animation-delay:-0.6s"></path>
</g><g style="transform:rotate(22.5deg);transform-origin:0px 0px">
  <path class="ld-pop" d="M30 0l3 0" stroke-width="3" stroke-linecap="round" stroke="#c44129" style="animation-delay:-0.6s"></path>
</g><g style="transform:rotate(45deg);transform-origin:0px 0px">
  <path class="ld-pop" d="M30 0l7 0" stroke-width="3" stroke-linecap="round" stroke="#c44129" style="animation-delay:-0.6s"></path>
</g><g style="transform:rotate(67.5deg);transform-origin:0px 0px">
  <path class="ld-pop" d="M30 0l3 0" stroke-width="3" stroke-linecap="round" stroke="#c44129" style="animation-delay:-0.6s"></path>
</g><g style="transform:rotate(90deg);transform-origin:0px 0px">
  <path class="ld-pop" d="M30 0l7 0" stroke-width="3" stroke-linecap="round" stroke="#c44129" style="animation-delay:-0.6s"></path>
</g><g style="transform:rotate(112.5deg);transform-origin:0px 0px">
  <path class="ld-pop" d="M30 0l3 0" stroke-width="3" stroke-linecap="round" stroke="#c44129" style="animation-delay:-0.6s"></path>
</g><g style="transform:rotate(135deg);transform-origin:0px 0px">
  <path class="ld-pop" d="M30 0l7 0" stroke-width="3" stroke-linecap="round" stroke="#c44129" style="animation-delay:-0.6s"></path>
</g><g style="transform:rotate(157.5deg);transform-origin:0px 0px">
  <path class="ld-pop" d="M30 0l3 0" stroke-width="3" stroke-linecap="round" stroke="#c44129" style="animation-delay:-0.6s"></path>
</g><g style="transform:rotate(180deg);transform-origin:0px 0px">
  <path class="ld-pop" d="M30 0l7 0" stroke-width="3" stroke-linecap="round" stroke="#c44129" style="animation-delay:-0.6s"></path>
</g><g style="transform:rotate(202.5deg);transform-origin:0px 0px">
  <path class="ld-pop" d="M30 0l3 0" stroke-width="3" stroke-linecap="round" stroke="#c44129" style="animation-delay:-0.6s"></path>
</g><g style="transform:rotate(225deg);transform-origin:0px 0px">
  <path class="ld-pop" d="M30 0l7 0" stroke-width="3" stroke-linecap="round" stroke="#c44129" style="animation-delay:-0.6s"></path>
</g><g style="transform:rotate(247.5deg);transform-origin:0px 0px">
  <path class="ld-pop" d="M30 0l3 0" stroke-width="3" stroke-linecap="round" stroke="#c44129" style="animation-delay:-0.6s"></path>
</g><g style="transform:rotate(270deg);transform-origin:0px 0px">
  <path class="ld-pop" d="M30 0l7 0" stroke-width="3" stroke-linecap="round" stroke="#c44129" style="animation-delay:-0.6s"></path>
</g><g style="transform:rotate(292.5deg);transform-origin:0px 0px">
  <path class="ld-pop" d="M30 0l3 0" stroke-width="3" stroke-linecap="round" stroke="#c44129" style="animation-delay:-0.6s"></path>
</g><g style="transform:rotate(315deg);transform-origin:0px 0px">
  <path class="ld-pop" d="M30 0l7 0" stroke-width="3" stroke-linecap="round" stroke="#c44129" style="animation-delay:-0.6s"></path>
</g><g style="transform:rotate(337.5deg);transform-origin:0px 0px">
  <path class="ld-pop" d="M30 0l3 0" stroke-width="3" stroke-linecap="round" stroke="#c44129" style="animation-delay:-0.6s"></path>
</g></g></g>
  </g>
  <g>
  <g><g class="path" style="transform: translate(0px, 0px); transform-origin: -20.26px 2.15223px; animation: 1s linear -0.293333s infinite normal forwards running bounceAlt-2845b61c-e689-440c-a36b-097acbeee683;"><path d="M20.06 1.43L19.89 1.33L19.75 1.22L19.62 1.05L19.55 0.88L19.45 0.65L19.45 0.44L19.48 0.17L19.58-0.27L19.69-0.65L19.75-1.02L19.82-1.43L19.86-1.77L19.92-2.11L19.99-2.52L20.06-2.96L20.16-3.37L20.30-4.22L20.47-5.20L20.54-5.98L20.54-6.36L20.30-6.19L19.79-5.58L19.07-4.73L18.36-3.77L17.99-3.26L17.61-2.72L17.27-2.18L17-1.70L16.63-1.05L16.29-0.65L15.95-0.51L15.54-0.51L15.27-0.61L15.06-0.82L14.89-1.09L14.86-1.39L14.93-1.70L15.23-2.21L15.74-2.96L16.52-4.01L17.03-4.69L17.54-5.44L18.05-6.12L18.46-6.73L18.80-7.24L19.11-7.68L19.38-8.06L19.55-8.26L19.65-8.36L19.72-8.50L19.82-8.60L19.86-8.70L19.92-8.81L20.03-8.91L20.16-9.01L20.30-9.11L20.47-9.21L20.57-9.35L20.67-9.49L20.74-9.59L20.77-9.79L20.77-10.23L20.81-10.85L20.81-11.53L20.84-13.23L21.22-13.57L21.42-13.74L21.59-13.84L21.79-13.87L22.07-13.84L22.44-13.74L22.75-13.57L22.98-13.33L23.09-13.02L23.09-12.85L23.09-12.58L23.02-12.27L22.95-11.97L22.85-11.56L22.78-10.98L22.71-10.37L22.64-9.76L22.58-9.21L22.54-8.74L22.51-8.40L22.47-8.26L22.44-8.13L22.41-7.79L22.37-7.31L22.30-6.73L22.24-6.02L22.13-5.17L22.03-4.25L21.90-3.43L21.79-2.58L21.69-1.77L21.62-1.02L21.59-0.41L21.56 0.41L21.45 0.95L21.28 1.26L20.94 1.43L20.67 1.53L20.50 1.56L20.33 1.53L20.06 1.43" fill="#0560bd" stroke="none" stroke-width="none" transform="translate(-39.235015869140625,8.307226087782116)" style="fill: rgb(196, 65, 41);"></path></g><g class="path" style="transform: translate(0px, 0px); transform-origin: -29.8px 2.10223px; animation: 1s linear -0.256667s infinite normal forwards running bounceAlt-2845b61c-e689-440c-a36b-097acbeee683;"><path d="M8.36-1.22L7.89-1.53L7.65-2.04L7.68-2.96L7.96-4.35L8.13-5.10L8.26-5.81L8.36-6.39L8.47-6.80L8.64-7.99L8.77-8.91L8.87-9.59L8.91-9.96L8.94-10.37L9.01-10.68L9.18-10.91L9.42-11.08L9.76-11.22L10.10-11.25L10.40-11.19L10.74-11.02L11.08-10.68L11.22-10.23L11.15-9.79L10.91-9.35L10.64-8.77L10.27-7.82L9.93-6.70L9.72-5.75L9.62-4.90L9.59-3.94L9.59-3.06L9.69-2.35L9.72-2.01L9.62-1.70L9.42-1.43L9.18-1.26L8.91-1.19L8.70-1.16L8.53-1.16L8.36-1.22" fill="#0560bd" stroke="none" stroke-width="none" transform="translate(-39.235015869140625,8.307226087782116)" style="fill: rgb(236, 147, 50);"></path></g><g class="path" style="transform: translate(0px, 0px); transform-origin: -33.335px -4.40777px; animation: 1s linear -0.22s infinite normal forwards running bounceAlt-2845b61c-e689-440c-a36b-097acbeee683;"><path d="M-1.26-2.82L-1.46-3.03L-1.63-3.26L-1.70-3.54L-1.67-3.84L-1.46-4.28L-1.02-5.10L-0.41-6.09L0.20-7.11L0.71-7.85L1.43-8.84L2.35-10.03L3.37-11.39L3.91-12.07L4.52-12.85L5.10-13.67L5.61-14.35L6.09-15.03L6.56-15.71L7.00-16.35L7.38-16.83L7.72-17.34L8.16-17.92L8.57-18.53L8.98-19.11L9.35-19.69L9.79-20.23L10.17-20.71L10.51-21.08L10.74-21.35L10.98-21.62L11.15-21.86L11.25-22.03L11.32-22.20L11.42-22.34L11.56-22.47L11.70-22.61L12.48-22.81L13.12-22.58L13.50-21.96L13.43-21.18L13.26-20.98L13.02-20.77L12.78-20.64L12.55-20.57L12.41-20.50L12.14-20.26L11.83-19.96L11.46-19.58L11.08-19.14L10.71-18.77L10.40-18.43L10.20-18.19L9.96-17.92L9.66-17.48L9.25-16.90L8.81-16.25L8.30-15.50L7.72-14.65L7.07-13.80L6.53-13.06L5.98-12.34L5.41-11.59L4.90-10.95L4.49-10.40L4.15-9.93L3.74-9.42L3.37-8.94L3.03-8.50L1.97-7.17L1.16-5.92L0.61-4.83L0.37-3.98L0.31-3.50L0.20-3.13L0.07-2.89L-0.14-2.75L-0.44-2.65L-0.68-2.62L-0.95-2.69L-1.26-2.82" fill="#0560bd" stroke="none" stroke-width="none" transform="translate(-39.235015869140625,8.307226087782116)" style="fill: rgb(62, 132, 16);"></path></g><g class="path" style="transform: translate(0px, 0px); transform-origin: -8.97502px 2.85223px; animation: 1s linear -0.183333s infinite normal forwards running bounceAlt-2845b61c-e689-440c-a36b-097acbeee683;"><path d="M25.43-4.08L25.30-4.18L25.19-4.32L25.06-4.49L24.96-4.66L24.85-4.90L24.82-5.07L24.85-5.24L24.96-5.41L25.02-5.54L25.16-5.71L25.30-5.85L25.40-5.98L25.57-6.09L25.77-6.15L25.98-6.19L26.25-6.15L26.86-6.12L27.68-6.19L28.70-6.32L29.99-6.56L31.08-6.73L32.47-6.87L33.86-6.97L34.95-6.97L35.19-6.90L35.46-6.70L35.63-6.43L35.70-6.19L35.67-5.88L35.53-5.61L35.33-5.41L35.09-5.30L34.92-5.27L34.61-5.24L34.27-5.24L33.86-5.24L32.13-5.10L29.89-4.79L27.85-4.42L26.62-4.08L26.32-3.98L26.01-3.94L25.70-3.98L25.43-4.08" fill="#0560bd" stroke="none" stroke-width="none" transform="translate(-39.235015869140625,8.307226087782116)" style="fill: rgb(5, 96, 189);"></path></g><g class="path" style="transform: translate(0px, 0px); transform-origin: -16.56px -9.78277px; animation: 1s linear -0.146667s infinite normal forwards running bounceAlt-2845b61c-e689-440c-a36b-097acbeee683;"><path d="M25.64-13.87L25.43-14.01L25.26-14.25L25.16-14.48L25.19-14.69L25.26-14.82L25.40-15.06L25.57-15.40L25.77-15.74L26.15-16.46L26.42-17.07L26.59-17.58L26.62-17.99L26.62-18.16L26.55-18.26L26.42-18.29L26.18-18.29L25.23-18.19L24.17-17.78L22.85-17.10L21.18-16.08L20.30-15.54L19.52-15.16L18.87-14.93L18.33-14.86L17.95-14.93L17.61-15.10L17.31-15.40L17.10-15.78L16.86-16.29L17.31-17.37L17.68-18.39L17.95-19.41L18.16-20.30L18.26-21.05L18.26-21.39L18.33-21.62L18.43-21.79L18.60-22.00L19.21-22.34L19.82-22.27L20.30-21.86L20.50-21.25L20.47-21.01L20.43-20.81L20.33-20.60L20.20-20.37L20.09-20.20L19.99-20.06L19.96-19.92L19.92-19.82L19.89-19.72L19.82-19.48L19.69-19.14L19.55-18.80L19.38-18.39L19.24-18.02L19.14-17.68L19.11-17.41L19.07-17.17L19.07-17.07L19.11-17.03L19.24-17.03L19.38-17.10L19.58-17.17L19.82-17.24L20.09-17.34L20.54-17.51L21.28-17.85L22.20-18.29L23.22-18.80L24.62-19.52L25.47-19.89L26.01-20.06L26.55-20.13L27.37-20.16L27.95-19.62L28.49-19.07L28.42-18.26L28.39-17.78L28.29-17.37L28.12-16.93L27.81-16.32L27.34-15.44L26.86-14.65L26.45-14.11L26.15-13.87L26.04-13.84L25.91-13.84L25.77-13.87L25.64-13.87" fill="#0560bd" stroke="none" stroke-width="none" transform="translate(-39.235015869140625,8.307226087782116)" style="fill: rgb(196, 65, 41);"></path></g><g class="path" style="transform: translate(0px, 0px); transform-origin: 12.17px 0.317226px; animation: 1s linear -0.11s infinite normal forwards running bounceAlt-2845b61c-e689-440c-a36b-097acbeee683;"><path d="M43.18 5.27L43.01 5.10L42.87 4.83L42.77 4.52L42.81 4.25L42.84 4.11L42.98 3.91L43.15 3.67L43.32 3.43L43.89 2.65L44.78 1.36L45.76-0.10L46.61-1.43L47.26-2.45L47.84-3.50L48.38-4.52L48.82-5.51L49.10-6.05L49.33-6.56L49.57-7.00L49.78-7.31L50.12-7.85L49.71-8.19L49.33-8.60L49.03-9.18L48.79-9.83L48.65-10.54L48.55-11.25L47.94-10.98L47.67-10.85L47.33-10.71L46.99-10.57L46.65-10.47L46.38-10.34L46.10-10.23L45.90-10.13L45.80-10.06L45.22-9.83L44.61-9.93L44.13-10.30L43.93-10.88L44.00-11.19L44.10-11.49L44.30-11.76L44.51-11.93L44.61-12.00L44.78-12.04L44.95-12.07L45.12-12.10L45.76-12.21L46.75-12.44L47.77-12.72L48.45-12.95L48.62-13.06L48.72-13.12L48.79-13.26L48.82-13.46L48.89-14.01L49.06-14.79L49.33-15.71L49.71-16.69L50.05-17.71L50.32-18.63L50.46-19.41L50.49-20.06L50.49-20.37L50.56-20.57L50.66-20.74L50.90-20.94L51.31-21.25L51.68-21.35L52.05-21.25L52.43-20.98L52.70-20.64L52.80-20.30L52.77-19.92L52.60-19.48L51.99-17.92L51.31-16.15L50.83-14.69L50.66-14.01L50.73-14.04L50.90-14.08L51.14-14.14L51.44-14.25L51.75-14.35L52.09-14.45L52.43-14.52L52.70-14.59L53.01-14.62L53.21-14.72L53.38-14.93L53.58-15.30L53.92-15.98L54.20-16.66L54.40-17.31L54.54-17.92L54.60-18.16L54.67-18.43L54.74-18.63L54.81-18.73L55.25-19.01L55.76-19.07L56.30-18.97L56.64-18.67L56.81-18.33L56.85-17.95L56.78-17.54L56.61-17.24L56.51-17.10L56.41-16.97L56.30-16.80L56.24-16.69L56.17-16.52L56.03-16.29L55.86-16.01L55.69-15.74L55.49-15.37L55.39-15.16L55.42-15.10L55.52-15.10L56.30-15.23L57.53-15.44L58.72-15.64L59.33-15.71L59.57-15.61L59.81-15.40L59.98-15.13L60.04-14.89L60.04-14.79L59.98-14.65L59.91-14.52L59.81-14.38L59.64-14.25L59.43-14.14L59.16-14.08L58.75-14.04L57.83-13.91L56.54-13.74L55.32-13.53L54.64-13.40L54.33-12.99L53.86-12.10L53.35-10.98L52.90-9.86L52.73-9.42L52.60-9.01L52.50-8.70L52.43-8.53L52.43-8.40L52.70-8.30L53.35-8.09L54.54-7.85L55.15-7.72L55.69-7.65L56.24-7.62L56.78-7.62L57.46-7.62L57.87-7.51L58.14-7.31L58.24-6.97L58.21-6.46L57.97-6.09L57.49-5.85L56.92-5.88L56.61-5.92L56.17-5.98L55.62-6.05L55.08-6.12L54.40-6.22L53.79-6.36L53.21-6.49L52.67-6.66L52.22-6.83L51.88-6.94L51.65-7.00L51.54-7.04L51.51-6.97L51.44-6.80L51.34-6.56L51.20-6.29L50.97-5.78L50.59-5.13L49.95-4.15L48.96-2.62L48.62-2.07L48.21-1.36L47.74-0.61L47.33 0.14L46.89 0.88L46.44 1.63L46.04 2.28L45.73 2.79L45.46 3.20L45.19 3.60L44.98 4.01L44.85 4.28L44.57 4.83L44.34 5.13L44.06 5.34L43.72 5.37L43.55 5.37L43.42 5.34L43.28 5.30L43.18 5.27zM51.88-11.83L52.05-12.34L52.02-12.55L51.71-12.55L51.07-12.31L50.39-12.07L50.39-11.25L50.39-10.85L50.42-10.54L50.52-10.27L50.63-10.03L50.90-9.62L51.27-10.37L51.41-10.71L51.58-11.12L51.75-11.49L51.88-11.83" fill="#0560bd" stroke="none" stroke-width="none" transform="translate(-39.235015869140625,8.307226087782116)" style="fill: rgb(236, 147, 50);"></path></g><g class="path" style="transform: translate(0px, 0px); transform-origin: 30.535px -2.36777px; animation: 1s linear -0.0733333s infinite normal forwards running bounceAlt-2845b61c-e689-440c-a36b-097acbeee683;"><path d="M64.40-0.24L64.26-0.27L64.12-0.37L64.02-0.51L63.92-0.65L63.72-0.99L64.19-2.11L64.87-3.64L65.35-4.90L65.72-5.88L65.96-6.70L66.16-7.58L66.16-7.99L65.89-8.02L65.28-7.85L64.29-7.58L63.24-7.21L62.29-6.83L61.71-6.56L61.40-6.43L61.03-6.39L60.66-6.43L60.32-6.56L60.11-6.77L59.98-7.07L59.91-7.41L59.94-7.75L60.04-8.02L60.25-8.30L60.49-8.50L60.66-8.57L61.06-8.64L61.51-8.70L62.12-8.84L63.04-9.04L64.40-9.38L65.38-9.69L65.96-9.93L66.20-10.13L66.16-10.27L66.03-10.47L65.79-10.74L65.52-11.05L65.11-11.49L64.87-11.80L64.77-12.07L64.74-12.51L64.74-13.12L64.80-13.80L64.91-14.42L65.04-14.82L65.25-15.33L65.69-16.29L66.16-17.44L66.61-18.43L66.84-19.04L66.57-18.94L66.13-18.77L65.76-18.53L65.42-18.26L65.21-18.05L64.94-17.78L64.60-17.65L64.19-17.61L63.82-17.68L63.51-17.85L63.31-18.02L63.21-18.26L63.10-18.53L63.10-19.01L63.31-19.38L63.75-19.72L64.53-20.13L65.45-20.54L66.16-20.81L66.84-20.98L67.52-21.08L68.27-21.15L68.75-20.67L68.99-20.40L69.12-20.20L69.22-20.03L69.26-19.82L69.19-19.45L69.02-18.97L68.75-18.39L68.34-17.75L67.80-16.83L67.35-15.91L67.01-15.06L66.81-14.25L66.67-13.43L66.71-12.92L66.88-12.55L67.29-12.10L67.56-11.80L67.80-11.53L67.97-11.25L68.07-11.05L68.20-10.64L68.58-10.85L68.78-10.91L68.99-11.02L69.19-11.08L69.39-11.15L69.63-11.25L69.97-11.36L70.31-11.49L70.69-11.63L71.30-11.83L72.01-12.04L73.17-12.31L75.04-12.72L75.62-12.85L76.30-12.99L76.91-13.16L77.45-13.26L78.27-13.43L78.81-13.46L79.15-13.36L79.42-13.12L79.56-12.85L79.63-12.58L79.56-12.27L79.39-12.00L79.08-11.80L78.44-11.56L77.21-11.29L75.14-10.85L74.09-10.61L73.07-10.34L71.91-10.00L70.55-9.52L70.11-9.38L69.67-9.21L69.22-9.08L68.85-8.98L68.10-8.74L67.39-6.53L67.08-5.61L66.81-4.79L66.61-4.15L66.50-3.77L66.16-2.72L65.79-1.67L65.48-0.85L65.28-0.44L65.08-0.31L64.87-0.20L64.63-0.20L64.40-0.24" fill="#0560bd" stroke="none" stroke-width="none" transform="translate(-39.235015869140625,8.307226087782116)" style="fill: rgb(62, 132, 16);"></path></g><g class="path" style="transform: translate(0px, 0px); transform-origin: 51.12px 6.43723px; animation: 1s linear -0.0366667s infinite normal forwards running bounceAlt-2845b61c-e689-440c-a36b-097acbeee683;"><path d="M89.52-0.71L89.52-0.71L89.32-1.46L89.25-2.31L89.32-2.99L89.59-3.47L90.03-3.74L90.58-3.77L91.12-3.54L91.22-3.40L91.32-3.13L91.39-2.69L91.43-2.07L91.46-1.36L91.46-0.88L91.39-0.61L91.29-0.37L90.98-0.10L90.58 0.03L90.17-0.03L89.79-0.20L89.52-0.71" fill="#0560bd" stroke="none" stroke-width="none" transform="translate(-39.235015869140625,8.307226087782116)" style="fill: rgb(5, 96, 189);"></path></g><g class="path" style="transform: translate(0px, 0px); transform-origin: 52.26px -8.31777px; animation: 1s linear 0s infinite normal forwards running bounceAlt-2845b61c-e689-440c-a36b-097acbeee683;"><path d="M89.73-9.32L89.73-9.32L89.66-9.52L89.66-9.79L89.66-10.06L89.83-11.46L90.03-13.80L90.27-16.35L90.44-18.46L90.61-20.20L90.85-21.90L91.09-23.26L91.29-23.97L91.66-24.34L92.14-24.48L92.62-24.41L93.06-24.07L93.26-23.83L93.33-23.56L93.30-23.22L93.13-22.81L92.85-21.83L92.45-20.09L92.04-18.16L91.73-16.46L91.56-14.93L91.43-13.02L91.36-11.22L91.39-10.06L91.36-9.52L91.22-9.11L90.92-8.87L90.51-8.77L90.27-8.81L90.10-8.87L89.93-8.98L89.79-9.15L89.73-9.32" fill="#0560bd" stroke="none" stroke-width="none" transform="translate(-39.235015869140625,8.307226087782116)" style="fill: rgb(196, 65, 41);"></path></g></g>
  </g>
  <g filter="url(#firework)">
  <g transform="translate(65.07420984346173,2.7647561911107266) scale(0.8862295709736187)"><g class="ld-explode" style="animation-delay:-0.7s"><g style="transform:rotate(0deg);transform-origin:0px 0px">
  <path class="ld-pop" d="M30 0l7 0" stroke-width="3" stroke-linecap="round" stroke="#ec9332" style="animation-delay:-0.7s"></path>
</g><g style="transform:rotate(22.5deg);transform-origin:0px 0px">
  <path class="ld-pop" d="M30 0l3 0" stroke-width="3" stroke-linecap="round" stroke="#ec9332" style="animation-delay:-0.7s"></path>
</g><g style="transform:rotate(45deg);transform-origin:0px 0px">
  <path class="ld-pop" d="M30 0l7 0" stroke-width="3" stroke-linecap="round" stroke="#ec9332" style="animation-delay:-0.7s"></path>
</g><g style="transform:rotate(67.5deg);transform-origin:0px 0px">
  <path class="ld-pop" d="M30 0l3 0" stroke-width="3" stroke-linecap="round" stroke="#ec9332" style="animation-delay:-0.7s"></path>
</g><g style="transform:rotate(90deg);transform-origin:0px 0px">
  <path class="ld-pop" d="M30 0l7 0" stroke-width="3" stroke-linecap="round" stroke="#ec9332" style="animation-delay:-0.7s"></path>
</g><g style="transform:rotate(112.5deg);transform-origin:0px 0px">
  <path class="ld-pop" d="M30 0l3 0" stroke-width="3" stroke-linecap="round" stroke="#ec9332" style="animation-delay:-0.7s"></path>
</g><g style="transform:rotate(135deg);transform-origin:0px 0px">
  <path class="ld-pop" d="M30 0l7 0" stroke-width="3" stroke-linecap="round" stroke="#ec9332" style="animation-delay:-0.7s"></path>
</g><g style="transform:rotate(157.5deg);transform-origin:0px 0px">
  <path class="ld-pop" d="M30 0l3 0" stroke-width="3" stroke-linecap="round" stroke="#ec9332" style="animation-delay:-0.7s"></path>
</g><g style="transform:rotate(180deg);transform-origin:0px 0px">
  <path class="ld-pop" d="M30 0l7 0" stroke-width="3" stroke-linecap="round" stroke="#ec9332" style="animation-delay:-0.7s"></path>
</g><g style="transform:rotate(202.5deg);transform-origin:0px 0px">
  <path class="ld-pop" d="M30 0l3 0" stroke-width="3" stroke-linecap="round" stroke="#ec9332" style="animation-delay:-0.7s"></path>
</g><g style="transform:rotate(225deg);transform-origin:0px 0px">
  <path class="ld-pop" d="M30 0l7 0" stroke-width="3" stroke-linecap="round" stroke="#ec9332" style="animation-delay:-0.7s"></path>
</g><g style="transform:rotate(247.5deg);transform-origin:0px 0px">
  <path class="ld-pop" d="M30 0l3 0" stroke-width="3" stroke-linecap="round" stroke="#ec9332" style="animation-delay:-0.7s"></path>
</g><g style="transform:rotate(270deg);transform-origin:0px 0px">
  <path class="ld-pop" d="M30 0l7 0" stroke-width="3" stroke-linecap="round" stroke="#ec9332" style="animation-delay:-0.7s"></path>
</g><g style="transform:rotate(292.5deg);transform-origin:0px 0px">
  <path class="ld-pop" d="M30 0l3 0" stroke-width="3" stroke-linecap="round" stroke="#ec9332" style="animation-delay:-0.7s"></path>
</g><g style="transform:rotate(315deg);transform-origin:0px 0px">
  <path class="ld-pop" d="M30 0l7 0" stroke-width="3" stroke-linecap="round" stroke="#ec9332" style="animation-delay:-0.7s"></path>
</g><g style="transform:rotate(337.5deg);transform-origin:0px 0px">
  <path class="ld-pop" d="M30 0l3 0" stroke-width="3" stroke-linecap="round" stroke="#ec9332" style="animation-delay:-0.7s"></path>
</g></g></g><g transform="translate(5.484584711423185,0.9825550978767863) scale(0.799449778800838)"><g class="ld-explode" style="animation-delay:-0.8s"><g style="transform:rotate(0deg);transform-origin:0px 0px">
  <path class="ld-pop" d="M30 0l7 0" stroke-width="3" stroke-linecap="round" stroke="#3e8410" style="animation-delay:-0.8s"></path>
</g><g style="transform:rotate(22.5deg);transform-origin:0px 0px">
  <path class="ld-pop" d="M30 0l3 0" stroke-width="3" stroke-linecap="round" stroke="#3e8410" style="animation-delay:-0.8s"></path>
</g><g style="transform:rotate(45deg);transform-origin:0px 0px">
  <path class="ld-pop" d="M30 0l7 0" stroke-width="3" stroke-linecap="round" stroke="#3e8410" style="animation-delay:-0.8s"></path>
</g><g style="transform:rotate(67.5deg);transform-origin:0px 0px">
  <path class="ld-pop" d="M30 0l3 0" stroke-width="3" stroke-linecap="round" stroke="#3e8410" style="animation-delay:-0.8s"></path>
</g><g style="transform:rotate(90deg);transform-origin:0px 0px">
  <path class="ld-pop" d="M30 0l7 0" stroke-width="3" stroke-linecap="round" stroke="#3e8410" style="animation-delay:-0.8s"></path>
</g><g style="transform:rotate(112.5deg);transform-origin:0px 0px">
  <path class="ld-pop" d="M30 0l3 0" stroke-width="3" stroke-linecap="round" stroke="#3e8410" style="animation-delay:-0.8s"></path>
</g><g style="transform:rotate(135deg);transform-origin:0px 0px">
  <path class="ld-pop" d="M30 0l7 0" stroke-width="3" stroke-linecap="round" stroke="#3e8410" style="animation-delay:-0.8s"></path>
</g><g style="transform:rotate(157.5deg);transform-origin:0px 0px">
  <path class="ld-pop" d="M30 0l3 0" stroke-width="3" stroke-linecap="round" stroke="#3e8410" style="animation-delay:-0.8s"></path>
</g><g style="transform:rotate(180deg);transform-origin:0px 0px">
  <path class="ld-pop" d="M30 0l7 0" stroke-width="3" stroke-linecap="round" stroke="#3e8410" style="animation-delay:-0.8s"></path>
</g><g style="transform:rotate(202.5deg);transform-origin:0px 0px">
  <path class="ld-pop" d="M30 0l3 0" stroke-width="3" stroke-linecap="round" stroke="#3e8410" style="animation-delay:-0.8s"></path>
</g><g style="transform:rotate(225deg);transform-origin:0px 0px">
  <path class="ld-pop" d="M30 0l7 0" stroke-width="3" stroke-linecap="round" stroke="#3e8410" style="animation-delay:-0.8s"></path>
</g><g style="transform:rotate(247.5deg);transform-origin:0px 0px">
  <path class="ld-pop" d="M30 0l3 0" stroke-width="3" stroke-linecap="round" stroke="#3e8410" style="animation-delay:-0.8s"></path>
</g><g style="transform:rotate(270deg);transform-origin:0px 0px">
  <path class="ld-pop" d="M30 0l7 0" stroke-width="3" stroke-linecap="round" stroke="#3e8410" style="animation-delay:-0.8s"></path>
</g><g style="transform:rotate(292.5deg);transform-origin:0px 0px">
  <path class="ld-pop" d="M30 0l3 0" stroke-width="3" stroke-linecap="round" stroke="#3e8410" style="animation-delay:-0.8s"></path>
</g><g style="transform:rotate(315deg);transform-origin:0px 0px">
  <path class="ld-pop" d="M30 0l7 0" stroke-width="3" stroke-linecap="round" stroke="#3e8410" style="animation-delay:-0.8s"></path>
</g><g style="transform:rotate(337.5deg);transform-origin:0px 0px">
  <path class="ld-pop" d="M30 0l3 0" stroke-width="3" stroke-linecap="round" stroke="#3e8410" style="animation-delay:-0.8s"></path>
</g></g></g><g transform="translate(5.500397075852372,-18.244501821360306) scale(0.9933360934875213)"><g class="ld-explode" style="animation-delay:-0.9s"><g style="transform:rotate(0deg);transform-origin:0px 0px">
  <path class="ld-pop" d="M30 0l7 0" stroke-width="3" stroke-linecap="round" stroke="#c44129" style="animation-delay:-0.9s"></path>
</g><g style="transform:rotate(22.5deg);transform-origin:0px 0px">
  <path class="ld-pop" d="M30 0l3 0" stroke-width="3" stroke-linecap="round" stroke="#c44129" style="animation-delay:-0.9s"></path>
</g><g style="transform:rotate(45deg);transform-origin:0px 0px">
  <path class="ld-pop" d="M30 0l7 0" stroke-width="3" stroke-linecap="round" stroke="#c44129" style="animation-delay:-0.9s"></path>
</g><g style="transform:rotate(67.5deg);transform-origin:0px 0px">
  <path class="ld-pop" d="M30 0l3 0" stroke-width="3" stroke-linecap="round" stroke="#c44129" style="animation-delay:-0.9s"></path>
</g><g style="transform:rotate(90deg);transform-origin:0px 0px">
  <path class="ld-pop" d="M30 0l7 0" stroke-width="3" stroke-linecap="round" stroke="#c44129" style="animation-delay:-0.9s"></path>
</g><g style="transform:rotate(112.5deg);transform-origin:0px 0px">
  <path class="ld-pop" d="M30 0l3 0" stroke-width="3" stroke-linecap="round" stroke="#c44129" style="animation-delay:-0.9s"></path>
</g><g style="transform:rotate(135deg);transform-origin:0px 0px">
  <path class="ld-pop" d="M30 0l7 0" stroke-width="3" stroke-linecap="round" stroke="#c44129" style="animation-delay:-0.9s"></path>
</g><g style="transform:rotate(157.5deg);transform-origin:0px 0px">
  <path class="ld-pop" d="M30 0l3 0" stroke-width="3" stroke-linecap="round" stroke="#c44129" style="animation-delay:-0.9s"></path>
</g><g style="transform:rotate(180deg);transform-origin:0px 0px">
  <path class="ld-pop" d="M30 0l7 0" stroke-width="3" stroke-linecap="round" stroke="#c44129" style="animation-delay:-0.9s"></path>
</g><g style="transform:rotate(202.5deg);transform-origin:0px 0px">
  <path class="ld-pop" d="M30 0l3 0" stroke-width="3" stroke-linecap="round" stroke="#c44129" style="animation-delay:-0.9s"></path>
</g><g style="transform:rotate(225deg);transform-origin:0px 0px">
  <path class="ld-pop" d="M30 0l7 0" stroke-width="3" stroke-linecap="round" stroke="#c44129" style="animation-delay:-0.9s"></path>
</g><g style="transform:rotate(247.5deg);transform-origin:0px 0px">
  <path class="ld-pop" d="M30 0l3 0" stroke-width="3" stroke-linecap="round" stroke="#c44129" style="animation-delay:-0.9s"></path>
</g><g style="transform:rotate(270deg);transform-origin:0px 0px">
  <path class="ld-pop" d="M30 0l7 0" stroke-width="3" stroke-linecap="round" stroke="#c44129" style="animation-delay:-0.9s"></path>
</g><g style="transform:rotate(292.5deg);transform-origin:0px 0px">
  <path class="ld-pop" d="M30 0l3 0" stroke-width="3" stroke-linecap="round" stroke="#c44129" style="animation-delay:-0.9s"></path>
</g><g style="transform:rotate(315deg);transform-origin:0px 0px">
  <path class="ld-pop" d="M30 0l7 0" stroke-width="3" stroke-linecap="round" stroke="#c44129" style="animation-delay:-0.9s"></path>
</g><g style="transform:rotate(337.5deg);transform-origin:0px 0px">
  <path class="ld-pop" d="M30 0l3 0" stroke-width="3" stroke-linecap="round" stroke="#c44129" style="animation-delay:-0.9s"></path>
</g></g></g>
  </g>
</g>

</g>
</svg>
